<?xml version="1.0" encoding="UTF-8"?>
<svg xmlns="http://www.w3.org/2000/svg" xmlns:xlink="http://www.w3.org/1999/xlink" width="250px" height="250px" viewBox="0 0 250 250" version="1.1">
<g id="surface1">
<path style=" stroke:none;fill-rule:nonzero;fill:rgb(89.803922%,89.803922%,89.803922%);fill-opacity:1;" d="M 218.421875 194.3125 C 218.421875 190.566406 174.441406 187.53125 120.1875 187.53125 C 65.933594 187.53125 21.953125 190.566406 21.953125 194.3125 C 21.953125 198.054688 65.933594 201.09375 120.1875 201.09375 C 174.441406 201.09375 218.421875 198.054688 218.421875 194.3125 Z M 218.421875 194.3125 "/>
<path style=" stroke:none;fill-rule:nonzero;fill:rgb(89.803922%,89.803922%,89.803922%);fill-opacity:1;" d="M 243.636719 211.472656 C 243.636719 202.898438 190.332031 195.949219 124.578125 195.949219 C 58.824219 195.949219 5.523438 202.898438 5.523438 211.472656 C 5.523438 220.046875 58.824219 227 124.578125 227 C 190.332031 227 243.636719 220.046875 243.636719 211.472656 Z M 243.636719 211.472656 "/>
<path style=" stroke:none;fill-rule:nonzero;fill:rgb(24.313725%,53.72549%,98.823529%);fill-opacity:1;" d="M 211.625 150.75 C 211.625 150.75 221.25 150.046875 221.125 161.609375 C 221.011719 171.917969 213.453125 172.480469 211.8125 172.480469 C 211.613281 172.480469 211.5 172.472656 211.5 172.472656 L 138.125 172.472656 L 138.125 168.832031 L 211.375 168.832031 C 211.375 168.832031 216.558594 167.777344 216.75 162.023438 C 217 154.507812 210.875 154.507812 210.875 154.507812 L 138.125 154.507812 L 138.125 150.75 Z M 211.625 150.75 "/>
<path style=" stroke:none;fill-rule:nonzero;fill:rgb(0%,0%,0%);fill-opacity:1;" d="M 220.71875 192.917969 C 220.859375 192.917969 220.96875 193.03125 220.96875 193.167969 C 220.96875 193.304688 220.859375 193.417969 220.71875 193.417969 Z M 220.71875 195.5 C 220.859375 195.5 220.96875 195.613281 220.96875 195.75 C 220.96875 195.886719 220.859375 196 220.71875 196 Z M 220.71875 198.417969 C 220.859375 198.417969 220.96875 198.53125 220.96875 198.667969 C 220.96875 198.804688 220.859375 198.917969 220.71875 198.917969 Z M 220.71875 198.417969 "/>
<path style=" stroke:none;fill-rule:nonzero;fill:rgb(89.803922%,89.803922%,89.803922%);fill-opacity:1;" d="M 220.71875 198.917969 L 220.71875 202.53125 L 141.289062 202.53125 C 141.289062 202.53125 135.519531 201.558594 135.308594 196.273438 C 135.03125 189.363281 141.84375 189.363281 141.84375 189.363281 L 220.71875 189.363281 L 220.71875 192.917969 L 140.832031 192.917969 C 140.695312 192.917969 140.582031 193.03125 140.582031 193.167969 C 140.582031 193.304688 140.695312 193.417969 140.832031 193.417969 L 220.71875 193.417969 L 220.71875 195.5 L 145.582031 195.5 C 145.445312 195.5 145.332031 195.613281 145.332031 195.75 C 145.332031 195.886719 145.445312 196 145.582031 196 L 220.71875 196 L 220.71875 198.417969 L 157.582031 198.417969 C 157.445312 198.417969 157.332031 198.53125 157.332031 198.667969 C 157.332031 198.804688 157.445312 198.917969 157.582031 198.917969 Z M 220.71875 198.917969 "/>
<path style=" stroke:none;fill-rule:nonzero;fill:rgb(0%,0%,0%);fill-opacity:1;" d="M 220.71875 198.667969 L 220.71875 198.917969 L 157.582031 198.917969 C 157.445312 198.917969 157.332031 198.804688 157.332031 198.667969 C 157.332031 198.53125 157.445312 198.417969 157.582031 198.417969 L 220.71875 198.417969 Z M 220.71875 195.75 L 220.71875 196 L 145.582031 196 C 145.445312 196 145.332031 195.886719 145.332031 195.75 C 145.332031 195.613281 145.445312 195.5 145.582031 195.5 L 220.71875 195.5 Z M 220.71875 193.417969 L 140.832031 193.417969 C 140.695312 193.417969 140.582031 193.304688 140.582031 193.167969 C 140.582031 193.03125 140.695312 192.917969 140.832031 192.917969 L 220.71875 192.917969 Z M 220.71875 193.417969 "/>
<path style=" stroke:none;fill-rule:nonzero;fill:rgb(89.803922%,89.803922%,89.803922%);fill-opacity:1;" d="M 210.875 154.507812 C 210.875 154.507812 217 154.507812 216.75 162.023438 C 216.558594 167.777344 211.375 168.832031 211.375 168.832031 L 140.003906 168.832031 L 140.003906 165.332031 L 208.082031 165.332031 C 208.21875 165.332031 208.332031 165.21875 208.332031 165.082031 C 208.332031 164.945312 208.21875 164.832031 208.082031 164.832031 L 140.003906 164.832031 L 140.003906 161.859375 L 200.5 161.859375 C 200.636719 161.859375 200.75 161.746094 200.75 161.609375 C 200.75 161.472656 200.636719 161.359375 200.5 161.359375 L 140.003906 161.359375 L 140.003906 158.167969 L 202.75 158.167969 C 202.886719 158.167969 203 158.054688 203 157.917969 C 203 157.78125 202.886719 157.667969 202.75 157.667969 L 140.003906 157.667969 L 140.003906 154.507812 Z M 210.875 154.507812 "/>
<path style=" stroke:none;fill-rule:nonzero;fill:rgb(66.27451%,85.098039%,100%);fill-opacity:1;" d="M 212.625 172.480469 C 212.625 172.480469 214.875 179.28125 212.625 185.621094 L 190.25 185.753906 L 190.25 172.480469 Z M 212.625 172.480469 "/>
<path style=" stroke:none;fill-rule:nonzero;fill:rgb(0%,0%,0%);fill-opacity:1;" d="M 208.082031 164.832031 C 208.21875 164.832031 208.332031 164.945312 208.332031 165.082031 C 208.332031 165.21875 208.21875 165.332031 208.082031 165.332031 L 140.003906 165.332031 L 140.003906 164.832031 Z M 202.75 157.667969 C 202.886719 157.667969 203 157.78125 203 157.917969 C 203 158.054688 202.886719 158.167969 202.75 158.167969 L 140.003906 158.167969 L 140.003906 157.667969 Z M 200.5 161.359375 C 200.636719 161.359375 200.75 161.472656 200.75 161.609375 C 200.75 161.746094 200.636719 161.859375 200.5 161.859375 L 140.003906 161.859375 L 140.003906 161.359375 Z M 200.5 161.359375 "/>
<path style=" stroke:none;fill-rule:nonzero;fill:rgb(100%,100%,100%);fill-opacity:1;" d="M 190.25 172.480469 L 190.25 185.753906 L 162.414062 185.914062 L 153.917969 185.914062 L 153.917969 172.480469 Z M 190.25 172.480469 "/>
<path style=" stroke:none;fill-rule:nonzero;fill:rgb(66.27451%,85.098039%,100%);fill-opacity:1;" d="M 187.125 150.738281 L 187.125 150.75 L 138.125 150.75 L 138.125 153.5 L 129.625 153.5 L 129.625 117.5 L 187.125 117.5 Z M 173.5 137.082031 L 173.5 129.5 L 163.332031 129.5 L 163.332031 137.082031 Z M 151.75 141.527344 L 151.75 126.832031 L 134.875 126.832031 L 134.875 141.527344 Z M 151.75 141.527344 "/>
<path style=" stroke:none;fill-rule:nonzero;fill:rgb(100%,100%,100%);fill-opacity:1;" d="M 163.332031 129.5 L 173.5 129.5 L 173.5 137.082031 L 163.332031 137.082031 Z M 163.332031 129.5 "/>
<path style=" stroke:none;fill-rule:nonzero;fill:rgb(66.27451%,85.098039%,100%);fill-opacity:1;" d="M 153.917969 185.90625 L 153.917969 185.914062 L 141.011719 185.914062 C 141.011719 185.914062 140.082031 185.855469 138.777344 186.050781 L 131.25 186.09375 C 131.25 186.09375 129 179.515625 131.25 172.480469 L 153.917969 172.480469 Z M 153.917969 185.90625 "/>
<path style=" stroke:none;fill-rule:nonzero;fill:rgb(100%,100%,100%);fill-opacity:1;" d="M 134.875 126.832031 L 151.75 126.832031 L 151.75 141.527344 L 134.875 141.527344 Z M 134.875 126.832031 "/>
<path style=" stroke:none;fill-rule:nonzero;fill:rgb(0%,0%,0%);fill-opacity:1;" d="M 140.003906 165.082031 L 140.003906 165.332031 C 139.867188 165.332031 139.753906 165.21875 139.753906 165.082031 C 139.753906 164.945312 139.867188 164.832031 140.003906 164.832031 Z M 140.003906 161.609375 L 140.003906 161.859375 C 139.867188 161.859375 139.753906 161.746094 139.753906 161.609375 C 139.753906 161.472656 139.867188 161.359375 140.003906 161.359375 Z M 140.003906 157.917969 L 140.003906 158.167969 C 139.867188 158.167969 139.753906 158.054688 139.753906 157.917969 C 139.753906 157.78125 139.867188 157.667969 140.003906 157.667969 Z M 140.003906 157.917969 "/>
<path style=" stroke:none;fill-rule:nonzero;fill:rgb(16.078431%,37.254902%,77.254902%);fill-opacity:1;" d="M 135.308594 196.273438 C 135.519531 201.558594 141.289062 202.53125 141.289062 202.53125 L 222.8125 202.53125 L 222.8125 205.875 L 141.148438 205.875 C 141.148438 205.875 130.578125 206.523438 130.4375 195.894531 C 130.339844 188.390625 135.648438 186.507812 138.777344 186.050781 L 162.414062 185.914062 L 222.8125 185.914062 L 222.8125 189.363281 L 141.84375 189.363281 C 141.84375 189.363281 135.03125 189.363281 135.308594 196.273438 Z M 135.308594 196.273438 "/>
<path style=" stroke:none;fill-rule:nonzero;fill:rgb(89.803922%,89.803922%,89.803922%);fill-opacity:1;" d="M 93.324219 104.5 L 93.324219 136.417969 L 42.25 136.417969 L 42.25 104.5 Z M 83.738281 119.75 L 83.738281 112.847656 L 71.582031 112.847656 L 71.582031 119.75 Z M 63.25 123.082031 L 63.25 116.417969 L 58.082031 116.417969 L 58.082031 111.5 L 47.582031 111.5 L 47.582031 117.5 L 52.832031 117.5 L 52.832031 123.082031 Z M 63.25 123.082031 "/>
<path style=" stroke:none;fill-rule:nonzero;fill:rgb(100%,100%,100%);fill-opacity:1;" d="M 71.582031 112.847656 L 83.738281 112.847656 L 83.738281 119.75 L 71.582031 119.75 Z M 71.582031 112.847656 "/>
<path style=" stroke:none;fill-rule:nonzero;fill:rgb(66.27451%,85.098039%,100%);fill-opacity:1;" d="M 67.789062 176.582031 L 65.582031 193.167969 L 42.25 193.167969 L 40.082031 176.582031 L 44.976562 176.582031 C 45.003906 176.640625 45.019531 176.675781 45.019531 176.679688 C 45.066406 176.789062 45.183594 176.851562 45.300781 176.828125 C 45.417969 176.804688 45.5 176.703125 45.5 176.582031 L 52.582031 176.582031 L 52.582031 176.589844 C 52.585938 176.726562 52.699219 176.832031 52.832031 176.832031 L 52.839844 176.832031 C 52.976562 176.828125 53.078125 176.71875 53.082031 176.582031 L 58.832031 176.582031 L 58.832031 176.585938 C 58.832031 176.722656 58.945312 176.832031 59.082031 176.832031 L 59.085938 176.832031 C 59.222656 176.828125 59.335938 176.71875 59.332031 176.582031 Z M 63.25 116.417969 L 63.25 123.082031 L 52.832031 123.082031 L 52.832031 117.5 L 58.082031 117.5 L 58.082031 116.417969 Z M 63.25 116.417969 "/>
<path style=" stroke:none;fill-rule:nonzero;fill:rgb(0%,0%,0%);fill-opacity:1;" d="M 62.207031 165.738281 C 62.175781 165.792969 62.148438 165.84375 62.117188 165.898438 C 62.070312 165.808594 62.027344 165.71875 61.988281 165.617188 C 61.960938 165.550781 61.941406 165.484375 61.917969 165.417969 L 61.835938 165.414062 C 61.835938 165.398438 61.839844 165.386719 61.839844 165.371094 C 63.769531 161.933594 66.507812 159.347656 69.976562 157.691406 C 70.035156 157.664062 70.101562 157.660156 70.164062 157.683594 C 70.226562 157.703125 70.277344 157.75 70.308594 157.808594 C 70.367188 157.933594 70.316406 158.082031 70.191406 158.140625 C 66.773438 159.773438 64.089844 162.328125 62.207031 165.738281 Z M 62.207031 165.738281 "/>
<path style=" stroke:none;fill-rule:nonzero;fill:rgb(66.27451%,85.098039%,100%);fill-opacity:1;" d="M 61.839844 165.371094 C 61.878906 164.367188 61.253906 163.191406 61.164062 162.167969 C 61.03125 160.675781 61.082031 158.664062 61.640625 157.265625 C 62.628906 154.816406 65.210938 152.609375 67.914062 152.582031 C 68.765625 152.574219 69.847656 152.78125 70.667969 152.585938 C 72.003906 152.273438 72.164062 151.070312 72.515625 150.019531 C 73.351562 147.511719 77.421875 147.476562 78.753906 149.519531 C 79.6875 150.949219 80.171875 152.917969 79.734375 154.605469 C 79.335938 156.121094 77.828125 158.371094 76.523438 159.25 C 74.835938 160.386719 72.636719 159.90625 71.015625 161.246094 C 70.277344 161.855469 69.835938 163.144531 69.996094 164.101562 C 70.191406 165.230469 71.074219 166.03125 71.167969 167.246094 C 71.363281 169.804688 68.320312 170.039062 66.398438 169.558594 C 65.253906 169.273438 64.648438 168.503906 63.835938 167.746094 C 63.128906 167.09375 62.503906 166.644531 62.117188 165.898438 C 62.148438 165.84375 62.175781 165.792969 62.207031 165.738281 C 64.089844 162.332031 66.773438 159.773438 70.191406 158.144531 C 70.316406 158.082031 70.367188 157.933594 70.308594 157.808594 C 70.277344 157.75 70.226562 157.703125 70.164062 157.683594 C 70.101562 157.660156 70.035156 157.664062 69.976562 157.691406 C 66.507812 159.347656 63.769531 161.933594 61.839844 165.371094 Z M 61.839844 165.371094 "/>
<path style=" stroke:none;fill-rule:nonzero;fill:rgb(0%,0%,0%);fill-opacity:1;" d="M 58.832031 176.582031 C 58.832031 176.484375 58.808594 170.855469 61.765625 165.496094 C 61.789062 165.453125 61.816406 165.414062 61.839844 165.371094 C 61.839844 165.386719 61.835938 165.398438 61.835938 165.414062 L 61.917969 165.417969 C 61.941406 165.484375 61.960938 165.550781 61.988281 165.617188 C 62.027344 165.71875 62.070312 165.808594 62.117188 165.898438 C 59.300781 171.113281 59.332031 176.523438 59.332031 176.582031 Z M 58.832031 176.582031 "/>
<path style=" stroke:none;fill-rule:nonzero;fill:rgb(0%,0%,0%);fill-opacity:1;" d="M 59.082031 176.582031 L 59.332031 176.582031 C 59.335938 176.71875 59.222656 176.828125 59.085938 176.832031 L 59.082031 176.832031 C 58.945312 176.832031 58.832031 176.722656 58.832031 176.585938 L 58.832031 176.582031 Z M 59.082031 176.582031 "/>
<path style=" stroke:none;fill-rule:nonzero;fill:rgb(24.313725%,53.72549%,98.823529%);fill-opacity:1;" d="M 57.753906 158.566406 C 59.386719 159.746094 59.578125 162.121094 58.523438 163.832031 C 57.355469 165.71875 54.445312 168.046875 52.066406 167.351562 C 52.0625 167.328125 52.058594 167.300781 52.050781 167.277344 C 50.847656 160.425781 48.191406 151.398438 42.394531 147.292969 C 42.28125 147.21875 42.125 147.242188 42.046875 147.355469 C 41.964844 147.46875 41.992188 147.625 42.105469 147.703125 C 47.746094 151.695312 50.355469 160.550781 51.550781 167.300781 C 48.558594 167.113281 45.363281 166.328125 42.582031 165.3125 C 40.808594 164.664062 38.566406 163.230469 38.746094 161.066406 C 38.851562 159.851562 39.753906 159.085938 40.667969 158.417969 C 41.371094 157.898438 42.117188 157.316406 41.835938 156.3125 C 41.546875 155.289062 40.296875 155.210938 39.414062 154.835938 C 38.160156 154.300781 36.871094 153.632812 36.015625 152.566406 C 33.828125 149.8125 34.121094 146.382812 37 144.3125 C 39.542969 142.488281 42.625 142.246094 45.5 143.328125 C 48.144531 144.328125 51.507812 146.664062 51.5 149.683594 C 51.496094 151.980469 50.5 153.765625 52.433594 155.582031 C 53.988281 157.039062 56.0625 157.339844 57.753906 158.566406 Z M 57.753906 158.566406 "/>
<path style=" stroke:none;fill-rule:nonzero;fill:rgb(100%,100%,100%);fill-opacity:1;" d="M 58.082031 116.417969 L 58.082031 117.5 L 47.582031 117.5 L 47.582031 111.5 L 58.082031 111.5 Z M 58.082031 116.417969 "/>
<path style=" stroke:none;fill-rule:nonzero;fill:rgb(0%,0%,0%);fill-opacity:1;" d="M 52.832031 176.582031 L 53.082031 176.582031 C 53.078125 176.71875 52.976562 176.828125 52.839844 176.832031 L 52.832031 176.832031 C 52.699219 176.832031 52.585938 176.726562 52.582031 176.589844 L 52.582031 176.582031 Z M 52.582031 176.582031 C 52.578125 176.378906 52.445312 172.371094 51.5625 167.363281 C 51.558594 167.34375 51.554688 167.324219 51.550781 167.300781 C 51.636719 167.308594 51.722656 167.316406 51.808594 167.320312 C 51.871094 167.328125 51.933594 167.328125 52 167.332031 C 52.023438 167.339844 52.042969 167.34375 52.066406 167.351562 C 52.964844 172.472656 53.082031 176.535156 53.082031 176.574219 L 53.082031 176.582031 Z M 45.25 176.582031 L 45.5 176.582031 C 45.5 176.648438 45.472656 176.710938 45.425781 176.757812 C 45.378906 176.804688 45.316406 176.832031 45.25 176.832031 C 45.152344 176.832031 45.058594 176.773438 45.019531 176.679688 C 45.019531 176.675781 45.003906 176.644531 44.976562 176.582031 Z M 45.25 176.582031 "/>
<path style=" stroke:none;fill-rule:nonzero;fill:rgb(0%,0%,0%);fill-opacity:1;" d="M 42.105469 147.703125 C 41.992188 147.625 41.964844 147.46875 42.046875 147.355469 C 42.125 147.242188 42.28125 147.21875 42.394531 147.296875 C 48.191406 151.398438 50.847656 160.425781 52.050781 167.277344 C 52.058594 167.304688 52.0625 167.328125 52.066406 167.351562 C 52.042969 167.34375 52.023438 167.339844 52 167.332031 C 51.933594 167.332031 51.871094 167.328125 51.808594 167.320312 C 51.722656 167.316406 51.636719 167.308594 51.550781 167.304688 C 50.355469 160.550781 47.746094 151.699219 42.105469 147.703125 Z M 40.835938 171.253906 C 40.886719 171.191406 40.933594 171.121094 40.976562 171.046875 C 40.980469 171.050781 40.984375 171.054688 40.988281 171.054688 L 41.039062 171.09375 C 41.078125 171.128906 41.125 171.160156 41.167969 171.199219 C 44.269531 173.648438 45.433594 176.371094 45.480469 176.484375 C 45.496094 176.515625 45.5 176.550781 45.5 176.582031 L 44.976562 176.582031 C 44.738281 176.082031 43.53125 173.703125 40.851562 171.582031 C 40.835938 171.574219 40.828125 171.5625 40.816406 171.558594 C 40.851562 171.539062 40.882812 171.515625 40.917969 171.5 L 41.003906 171.386719 C 40.949219 171.339844 40.890625 171.296875 40.835938 171.253906 Z M 40.835938 171.253906 "/>
<path style=" stroke:none;fill-rule:nonzero;fill:rgb(16.078431%,37.254902%,77.254902%);fill-opacity:1;" d="M 40.679688 171.449219 L 40.730469 171.488281 C 40.757812 171.511719 40.785156 171.53125 40.816406 171.558594 C 39.90625 172.070312 39.363281 172.476562 38.25 172.726562 C 36.851562 173.042969 35.429688 173.066406 33.996094 173.082031 C 31.660156 173.109375 29.71875 172.417969 27.75 171.265625 C 25.9375 170.210938 24.121094 168.488281 23.769531 166.257812 C 23.371094 163.71875 25.808594 160.765625 28.570312 161.410156 C 29.34375 161.589844 29.496094 162.417969 29.855469 163 C 30.265625 163.664062 30.648438 163.835938 31.4375 163.917969 C 33.496094 164.121094 35.28125 162.535156 37.417969 163.328125 C 39.296875 164.027344 40.710938 165.890625 41.105469 167.816406 C 41.285156 168.699219 41.484375 170.183594 40.976562 171.046875 C 38.699219 169.296875 36 168.164062 32.957031 167.667969 C 32.820312 167.648438 32.691406 167.742188 32.671875 167.878906 C 32.648438 168.015625 32.742188 168.140625 32.878906 168.164062 C 35.84375 168.640625 38.46875 169.746094 40.679688 171.449219 Z M 40.679688 171.449219 "/>
<path style=" stroke:none;fill-rule:nonzero;fill:rgb(0%,0%,0%);fill-opacity:1;" d="M 40.730469 171.488281 L 40.679688 171.449219 C 38.46875 169.746094 35.84375 168.644531 32.878906 168.164062 C 32.742188 168.140625 32.648438 168.015625 32.671875 167.878906 C 32.691406 167.742188 32.820312 167.648438 32.957031 167.671875 C 36 168.164062 38.699219 169.296875 40.976562 171.046875 C 40.933594 171.121094 40.886719 171.191406 40.835938 171.253906 C 40.890625 171.296875 40.949219 171.339844 41.003906 171.386719 L 40.917969 171.5 C 40.882812 171.515625 40.851562 171.539062 40.816406 171.558594 C 40.785156 171.53125 40.757812 171.511719 40.730469 171.488281 Z M 40.730469 171.488281 "/>
<path style=" stroke:none;fill-rule:nonzero;fill:rgb(88.627451%,16.078431%,32.54902%);fill-opacity:1;" d="M 193.933594 71.25 L 192.933594 75.75 L 175.933594 71.25 Z M 185 47.5 L 175.875 52.25 L 181.75 45.558594 Z M 176.625 96.164062 L 174.125 98.875 L 167.25 86.9375 Z M 170.25 29.875 L 160.375 41.75 L 165.125 27.875 Z M 170.25 29.875 "/>
<path style=" stroke:none;fill-rule:nonzero;fill:rgb(66.27451%,85.098039%,100%);fill-opacity:1;" d="M 143.824219 85.308594 L 143.824219 85.335938 C 143.824219 85.476562 143.933594 85.585938 144.074219 85.585938 C 144.199219 85.585938 144.308594 85.488281 144.320312 85.363281 C 145.636719 85.515625 146.855469 85.6875 147.980469 85.875 C 147.976562 85.890625 147.976562 85.902344 147.976562 85.917969 C 147.976562 86.054688 148.085938 86.167969 148.226562 86.167969 C 148.347656 86.167969 148.449219 86.078125 148.46875 85.960938 L 148.46875 85.957031 C 152.453125 86.648438 155.148438 87.476562 156.554688 87.976562 C 157.332031 88.253906 157.71875 88.429688 157.71875 88.429688 L 156.15625 92.0625 C 155.890625 91.984375 155.625 91.90625 155.359375 91.835938 C 146.175781 89.273438 137.636719 89.195312 134.871094 89.25 C 134.265625 89.261719 133.9375 89.28125 133.9375 89.28125 L 133.65625 84.78125 C 134.25 84.78125 134.832031 84.785156 135.402344 84.796875 C 138.542969 84.847656 141.347656 85.039062 143.824219 85.308594 Z M 143.824219 85.308594 "/>
<path style=" stroke:none;fill-rule:nonzero;fill:rgb(100%,78.823529%,38.431373%);fill-opacity:1;" d="M 151.609375 68.632812 C 151.996094 67.574219 152.363281 66.792969 152.707031 66.3125 C 153.226562 65.574219 154.171875 65.136719 155.242188 65.136719 C 156.175781 65.136719 156.949219 65.476562 157.078125 65.953125 C 157.207031 66.417969 156.707031 67.023438 155.707031 67.617188 C 154.605469 68.269531 153.226562 68.613281 151.609375 68.632812 Z M 151.609375 68.632812 "/>
<path style=" stroke:none;fill-rule:nonzero;fill:rgb(0%,0%,0%);fill-opacity:1;" d="M 152.703125 66.3125 C 152.363281 66.792969 151.996094 67.574219 151.605469 68.632812 C 153.226562 68.613281 154.605469 68.269531 155.703125 67.617188 C 156.703125 67.023438 157.203125 66.417969 157.078125 65.953125 C 156.945312 65.476562 156.175781 65.136719 155.242188 65.136719 C 154.171875 65.136719 153.226562 65.574219 152.703125 66.3125 Z M 151.335938 68.648438 C 151.710938 67.609375 152.109375 66.726562 152.5 66.167969 C 154.335938 63.5625 160.042969 65.332031 155.832031 67.832031 C 154.585938 68.570312 153.078125 68.878906 151.503906 68.886719 C 151.503906 68.851562 151.496094 68.816406 151.484375 68.785156 C 151.476562 68.769531 151.46875 68.757812 151.460938 68.742188 C 151.453125 68.726562 151.441406 68.714844 151.425781 68.703125 C 151.417969 68.695312 151.40625 68.683594 151.390625 68.675781 C 151.382812 68.671875 151.375 68.664062 151.363281 68.65625 C 151.351562 68.65625 151.34375 68.648438 151.335938 68.648438 Z M 151.480469 68.984375 C 151.460938 69.035156 151.445312 69.085938 151.429688 69.136719 C 151.371094 69.136719 151.3125 69.132812 151.253906 69.132812 C 151.355469 69.132812 151.441406 69.074219 151.480469 68.984375 Z M 151.480469 68.984375 "/>
<path style=" stroke:none;fill-rule:nonzero;fill:rgb(0%,0%,0%);fill-opacity:1;" d="M 151.460938 68.742188 C 151.46875 68.757812 151.476562 68.773438 151.484375 68.785156 C 151.476562 68.769531 151.46875 68.753906 151.460938 68.742188 Z M 151.460938 68.742188 "/>
<path style=" stroke:none;fill-rule:nonzero;fill:rgb(0%,0%,0%);fill-opacity:1;" d="M 151.460938 68.742188 C 151.46875 68.753906 151.476562 68.769531 151.484375 68.785156 C 151.496094 68.816406 151.503906 68.851562 151.503906 68.886719 C 151.421875 68.886719 151.335938 68.886719 151.253906 68.882812 C 151.28125 68.800781 151.308594 68.726562 151.335938 68.648438 C 151.34375 68.648438 151.351562 68.65625 151.363281 68.65625 C 151.371094 68.664062 151.386719 68.671875 151.390625 68.675781 C 151.40625 68.683594 151.417969 68.695312 151.425781 68.703125 C 151.441406 68.714844 151.453125 68.730469 151.460938 68.742188 Z M 151.460938 68.742188 "/>
<path style=" stroke:none;fill-rule:nonzero;fill:rgb(0%,0%,0%);fill-opacity:1;" d="M 151.078125 68.628906 C 151.511719 67.425781 151.90625 66.574219 152.292969 66.023438 C 152.90625 65.152344 154.007812 64.636719 155.242188 64.636719 C 156.433594 64.636719 157.363281 65.109375 157.558594 65.824219 C 157.699219 66.324219 157.53125 67.113281 155.960938 68.046875 C 154.746094 68.765625 153.226562 69.136719 151.445312 69.136719 L 151.429688 69.136719 C 151.445312 69.085938 151.460938 69.035156 151.480469 68.984375 C 151.496094 68.953125 151.503906 68.921875 151.503906 68.886719 C 153.078125 68.878906 154.585938 68.570312 155.832031 67.832031 C 160.042969 65.332031 154.335938 63.5625 152.5 66.167969 C 152.105469 66.726562 151.710938 67.609375 151.335938 68.648438 C 151.316406 68.640625 151.296875 68.636719 151.273438 68.636719 C 151.273438 68.632812 151.269531 68.632812 151.265625 68.632812 L 151.25 68.632812 C 151.191406 68.632812 151.136719 68.628906 151.078125 68.628906 Z M 151.078125 68.628906 "/>
<path style=" stroke:none;fill-rule:nonzero;fill:rgb(100%,78.823529%,38.431373%);fill-opacity:1;" d="M 151.445312 69.136719 C 153.226562 69.136719 154.746094 68.765625 155.960938 68.046875 C 157.53125 67.113281 157.699219 66.324219 157.558594 65.824219 C 157.363281 65.109375 156.433594 64.636719 155.242188 64.636719 C 154.007812 64.636719 152.90625 65.152344 152.292969 66.023438 C 151.90625 66.574219 151.507812 67.425781 151.078125 68.628906 C 149.230469 68.574219 147.125 68.105469 145.246094 67.324219 C 145.175781 65.347656 145.058594 64.152344 144.902344 63.671875 C 144.640625 62.890625 143.855469 62.382812 142.902344 62.382812 C 142.226562 62.382812 141.617188 62.652344 141.265625 63.101562 C 141.039062 63.390625 140.808594 63.90625 141.007812 64.679688 C 141.246094 65.609375 142.675781 66.746094 144.757812 67.65625 C 144.878906 71.34375 144.828125 76.433594 144.816406 77.671875 L 144.101562 77.585938 C 144.03125 77.574219 143.960938 77.597656 143.90625 77.644531 C 143.851562 77.691406 143.820312 77.761719 143.820312 77.832031 L 143.820312 82.796875 C 140.066406 81.753906 136.757812 79.859375 134.175781 77.378906 C 130.421875 73.765625 128.21875 68.921875 128.441406 63.679688 C 128.898438 53.164062 138.980469 45.0625 150.964844 45.578125 C 162.949219 46.097656 172.292969 55.042969 171.839844 65.554688 C 171.523438 72.835938 166.59375 78.960938 159.605469 81.867188 C 156.507812 83.160156 153.003906 83.816406 149.320312 83.65625 C 149.195312 83.648438 149.070312 83.640625 148.945312 83.636719 L 149.988281 78.550781 C 150.003906 78.484375 149.984375 78.410156 149.945312 78.351562 C 149.902344 78.296875 149.839844 78.261719 149.773438 78.253906 L 149.128906 78.175781 C 149.359375 77.039062 150.300781 72.417969 151.429688 69.136719 Z M 151.445312 69.136719 "/>
<path style=" stroke:none;fill-rule:nonzero;fill:rgb(0%,0%,0%);fill-opacity:1;" d="M 151.425781 68.703125 Z M 151.390625 68.675781 C 151.382812 68.667969 151.375 68.664062 151.363281 68.65625 C 151.371094 68.664062 151.382812 68.671875 151.390625 68.675781 Z M 151.363281 68.65625 C 151.351562 68.65625 151.34375 68.648438 151.335938 68.648438 C 151.34375 68.648438 151.351562 68.65625 151.363281 68.65625 Z M 151.273438 68.636719 C 151.273438 68.632812 151.269531 68.632812 151.269531 68.632812 C 151.269531 68.632812 151.273438 68.632812 151.273438 68.636719 Z M 151.253906 68.882812 C 151.335938 68.886719 151.421875 68.886719 151.503906 68.886719 C 151.503906 68.921875 151.496094 68.953125 151.480469 68.984375 C 151.441406 69.074219 151.355469 69.132812 151.253906 69.132812 L 151.25 69.132812 C 151.222656 69.132812 151.199219 69.128906 151.171875 69.117188 C 151.199219 69.039062 151.226562 68.960938 151.253906 68.882812 Z M 151.253906 68.882812 "/>
<path style=" stroke:none;fill-rule:nonzero;fill:rgb(0%,0%,0%);fill-opacity:1;" d="M 151.25 68.632812 L 151.269531 68.632812 C 151.269531 68.632812 151.273438 68.632812 151.273438 68.636719 C 151.296875 68.636719 151.316406 68.640625 151.335938 68.648438 C 151.308594 68.726562 151.28125 68.800781 151.253906 68.882812 C 151.171875 68.882812 151.085938 68.878906 151.003906 68.875 C 151.003906 68.851562 151.007812 68.824219 151.019531 68.800781 L 151.03125 68.761719 C 151.078125 68.683594 151.164062 68.632812 151.25 68.632812 Z M 151.25 68.632812 "/>
<path style=" stroke:none;fill-rule:nonzero;fill:rgb(0%,0%,0%);fill-opacity:1;" d="M 151.25 68.632812 C 151.164062 68.632812 151.078125 68.683594 151.03125 68.761719 C 151.046875 68.71875 151.0625 68.671875 151.078125 68.628906 C 151.136719 68.628906 151.191406 68.632812 151.25 68.632812 Z M 151.25 69.132812 C 151.222656 69.132812 151.195312 69.132812 151.167969 69.128906 C 151.171875 69.125 151.171875 69.121094 151.171875 69.117188 C 151.199219 69.128906 151.222656 69.132812 151.25 69.132812 Z M 151.253906 68.882812 C 151.226562 68.960938 151.199219 69.039062 151.171875 69.117188 C 151.121094 69.101562 151.078125 69.070312 151.046875 69.023438 C 151.015625 68.980469 151 68.929688 151.003906 68.875 C 151.085938 68.878906 151.171875 68.882812 151.253906 68.882812 Z M 151.015625 68.800781 C 151.007812 68.824219 151.003906 68.851562 151.003906 68.875 L 150.992188 68.875 C 151 68.851562 151.011719 68.824219 151.015625 68.800781 Z M 151.015625 68.800781 "/>
<path style=" stroke:none;fill-rule:nonzero;fill:rgb(0%,0%,0%);fill-opacity:1;" d="M 151.046875 69.023438 C 151.078125 69.070312 151.121094 69.101562 151.171875 69.117188 C 151.167969 69.121094 151.167969 69.125 151.167969 69.128906 C 151.082031 69.128906 150.996094 69.128906 150.90625 69.121094 C 150.933594 69.039062 150.960938 68.953125 150.992188 68.875 L 151.003906 68.875 C 151 68.929688 151.015625 68.980469 151.046875 69.023438 Z M 151.046875 69.023438 "/>
<path style=" stroke:none;fill-rule:nonzero;fill:rgb(100%,78.823529%,38.431373%);fill-opacity:1;" d="M 150.90625 69.121094 C 149.777344 72.460938 148.84375 77.054688 148.632812 78.117188 L 145.316406 77.726562 C 145.328125 76.609375 145.378906 71.601562 145.265625 67.871094 C 147.113281 68.613281 149.085938 69.050781 150.90625 69.121094 Z M 148.945312 83.636719 C 149.070312 83.640625 149.195312 83.648438 149.320312 83.65625 C 153.003906 83.816406 156.507812 83.160156 159.605469 81.867188 L 159.605469 81.871094 L 156.554688 87.976562 C 155.148438 87.476562 152.453125 86.648438 148.46875 85.957031 Z M 148.945312 83.636719 "/>
<path style=" stroke:none;fill-rule:nonzero;fill:rgb(0%,0%,0%);fill-opacity:1;" d="M 149.988281 78.550781 L 148.945312 83.636719 L 148.695312 83.621094 L 149.742188 78.5 L 149.085938 78.421875 C 149.089844 78.386719 149.109375 78.304688 149.128906 78.175781 L 149.773438 78.253906 C 149.84375 78.261719 149.90625 78.296875 149.945312 78.351562 C 149.984375 78.410156 150.003906 78.484375 149.988281 78.550781 Z M 149.988281 78.550781 "/>
<path style=" stroke:none;fill-rule:nonzero;fill:rgb(100%,78.823529%,38.431373%);fill-opacity:1;" d="M 149.441406 78.71875 L 148.441406 83.601562 C 147.050781 83.496094 145.675781 83.269531 144.324219 82.925781 L 144.324219 78.113281 L 145.011719 78.195312 L 148.835938 78.644531 Z M 149.441406 78.71875 "/>
<path style=" stroke:none;fill-rule:nonzero;fill:rgb(99.215686%,63.137255%,50.588235%);fill-opacity:1;" d="M 149.3125 106.3125 C 150.125 106.4375 149.9375 108.375 147.4375 110.5625 C 144.9375 112.75 140.503906 113.503906 138.78125 114.191406 C 137.734375 113.335938 136.265625 112.289062 135.40625 111.683594 C 135.40625 111.683594 138.0625 104.5 138.8125 105.1875 C 139.5625 105.875 139.4375 108.8125 139.4375 108.8125 C 139.4375 108.8125 148.5 106.1875 149.3125 106.3125 Z M 149.3125 106.3125 "/>
<path style=" stroke:none;fill-rule:nonzero;fill:rgb(0%,0%,0%);fill-opacity:1;" d="M 151.429688 69.136719 C 150.300781 72.417969 149.359375 77.039062 149.128906 78.175781 L 148.882812 78.148438 C 149.101562 77.046875 150.035156 72.457031 151.167969 69.128906 C 151.195312 69.132812 151.222656 69.132812 151.25 69.132812 L 151.253906 69.132812 C 151.3125 69.132812 151.371094 69.136719 151.429688 69.136719 Z M 148.441406 83.601562 L 149.441406 78.71875 L 148.835938 78.644531 L 148.835938 78.640625 C 148.953125 78.640625 149.058594 78.558594 149.078125 78.441406 C 149.078125 78.4375 149.082031 78.433594 149.085938 78.421875 L 149.742188 78.5 L 148.695312 83.621094 C 148.609375 83.613281 148.523438 83.609375 148.441406 83.601562 Z M 148.945312 83.636719 L 148.46875 85.957031 C 148.390625 85.941406 148.308594 85.929688 148.226562 85.914062 L 148.695312 83.621094 Z M 148.945312 83.636719 "/>
<path style=" stroke:none;fill-rule:nonzero;fill:rgb(0%,0%,0%);fill-opacity:1;" d="M 148.632812 78.117188 C 148.84375 77.054688 149.777344 72.460938 150.90625 69.121094 C 150.996094 69.128906 151.082031 69.128906 151.167969 69.128906 C 150.035156 72.457031 149.101562 77.046875 148.882812 78.148438 Z M 149.128906 78.175781 C 149.109375 78.304688 149.089844 78.386719 149.085938 78.421875 L 148.835938 78.390625 C 148.835938 78.390625 148.851562 78.308594 148.882812 78.148438 Z M 149.128906 78.175781 "/>
<path style=" stroke:none;fill-rule:nonzero;fill:rgb(0%,0%,0%);fill-opacity:1;" d="M 148.589844 78.34375 C 148.589844 78.335938 148.605469 78.261719 148.632812 78.117188 L 148.882812 78.148438 C 148.851562 78.308594 148.835938 78.390625 148.835938 78.390625 L 148.585938 78.363281 C 148.585938 78.359375 148.589844 78.351562 148.589844 78.34375 Z M 148.589844 78.34375 "/>
<path style=" stroke:none;fill-rule:nonzero;fill:rgb(0%,0%,0%);fill-opacity:1;" d="M 148.789062 78.636719 C 148.660156 78.613281 148.570312 78.492188 148.585938 78.363281 L 148.835938 78.390625 L 149.085938 78.421875 C 149.082031 78.433594 149.078125 78.4375 149.078125 78.441406 C 149.058594 78.558594 148.953125 78.644531 148.835938 78.640625 C 148.820312 78.640625 148.804688 78.640625 148.789062 78.636719 Z M 148.441406 83.601562 C 148.523438 83.609375 148.609375 83.613281 148.695312 83.621094 L 148.226562 85.914062 C 148.144531 85.902344 148.0625 85.886719 147.980469 85.875 L 147.980469 85.863281 Z M 145.316406 77.726562 L 148.632812 78.117188 C 148.605469 78.261719 148.589844 78.335938 148.589844 78.34375 C 148.589844 78.351562 148.585938 78.359375 148.585938 78.363281 L 145.308594 77.980469 C 145.3125 77.972656 145.3125 77.960938 145.3125 77.953125 C 145.3125 77.945312 145.3125 77.867188 145.316406 77.726562 Z M 145.316406 77.726562 "/>
<path style=" stroke:none;fill-rule:nonzero;fill:rgb(100%,78.823529%,38.431373%);fill-opacity:1;" d="M 144.324219 82.925781 C 145.648438 83.261719 147.023438 83.492188 148.441406 83.601562 L 147.980469 85.863281 L 147.980469 85.875 C 146.855469 85.6875 145.636719 85.515625 144.320312 85.363281 C 144.320312 85.355469 144.320312 85.34375 144.320312 85.335938 L 144.320312 82.925781 Z M 144.324219 82.925781 "/>
<path style=" stroke:none;fill-rule:nonzero;fill:rgb(0%,0%,0%);fill-opacity:1;" d="M 148.226562 85.914062 C 148.308594 85.929688 148.390625 85.941406 148.46875 85.957031 L 148.46875 85.960938 C 148.449219 86.078125 148.347656 86.167969 148.226562 86.167969 C 148.085938 86.167969 147.976562 86.054688 147.976562 85.917969 C 147.976562 85.902344 147.976562 85.890625 147.980469 85.875 C 148.0625 85.886719 148.144531 85.902344 148.226562 85.914062 Z M 145.246094 67.324219 C 147.125 68.105469 149.230469 68.574219 151.078125 68.628906 C 151.0625 68.671875 151.046875 68.71875 151.03125 68.761719 L 151.015625 68.800781 C 151.011719 68.824219 151 68.851562 150.992188 68.875 C 149.007812 68.808594 146.960938 68.292969 145.257812 67.597656 C 145.253906 67.5625 145.253906 67.527344 145.253906 67.492188 L 145.253906 67.484375 Z M 145.246094 67.324219 "/>
<path style=" stroke:none;fill-rule:nonzero;fill:rgb(0%,0%,0%);fill-opacity:1;" d="M 145.257812 67.597656 C 146.960938 68.292969 149.011719 68.808594 150.992188 68.875 C 150.960938 68.953125 150.933594 69.039062 150.90625 69.121094 C 149.085938 69.050781 147.113281 68.613281 145.265625 67.871094 Z M 145.3125 77.953125 C 145.3125 77.960938 145.3125 77.972656 145.308594 77.980469 L 145.0625 77.949219 C 145.0625 77.949219 145.066406 77.859375 145.066406 77.699219 L 145.316406 77.726562 C 145.3125 77.867188 145.3125 77.945312 145.3125 77.953125 Z M 145.3125 77.953125 "/>
<path style=" stroke:none;fill-rule:nonzero;fill:rgb(0%,0%,0%);fill-opacity:1;" d="M 145.066406 77.699219 C 145.082031 76.523438 145.132812 71.496094 145.011719 67.765625 C 145.097656 67.800781 145.183594 67.835938 145.265625 67.871094 C 145.378906 71.601562 145.328125 76.609375 145.316406 77.726562 Z M 145.066406 77.699219 "/>
<path style=" stroke:none;fill-rule:nonzero;fill:rgb(0%,0%,0%);fill-opacity:1;" d="M 145.265625 67.871094 C 145.183594 67.835938 145.097656 67.800781 145.011719 67.765625 C 145.011719 67.757812 145.011719 67.75 145.011719 67.742188 C 145.058594 67.738281 145.105469 67.726562 145.144531 67.699219 C 145.183594 67.671875 145.214844 67.632812 145.234375 67.585938 C 145.238281 67.59375 145.246094 67.59375 145.257812 67.597656 Z M 145.265625 67.871094 "/>
<path style=" stroke:none;fill-rule:nonzero;fill:rgb(0%,0%,0%);fill-opacity:1;" d="M 145.234375 67.585938 C 145.246094 67.558594 145.253906 67.523438 145.253906 67.492188 C 145.253906 67.527344 145.253906 67.5625 145.257812 67.597656 C 145.25 67.597656 145.238281 67.59375 145.234375 67.585938 Z M 145.246094 67.324219 L 145.253906 67.484375 C 145.25 67.382812 145.175781 67.296875 145.089844 67.261719 C 145.09375 67.261719 145.097656 67.261719 145.101562 67.261719 C 145.148438 67.28125 145.199219 67.300781 145.246094 67.324219 Z M 145.003906 67.492188 C 145.078125 67.523438 145.15625 67.558594 145.234375 67.585938 C 145.214844 67.632812 145.183594 67.671875 145.144531 67.699219 C 145.105469 67.726562 145.058594 67.738281 145.011719 67.742188 Z M 145.066406 77.699219 C 145.066406 77.859375 145.0625 77.949219 145.0625 77.949219 L 144.8125 77.921875 C 144.8125 77.878906 144.816406 77.796875 144.816406 77.671875 Z M 148.835938 78.644531 L 145.011719 78.195312 C 145.023438 78.199219 145.042969 78.199219 145.058594 78.199219 L 145.0625 78.199219 C 145.191406 78.199219 145.296875 78.105469 145.308594 77.980469 L 148.585938 78.363281 C 148.570312 78.492188 148.65625 78.613281 148.789062 78.636719 C 148.804688 78.640625 148.820312 78.640625 148.835938 78.640625 Z M 144.816406 77.671875 C 144.832031 76.433594 144.878906 71.34375 144.757812 67.65625 C 144.804688 67.679688 144.855469 67.699219 144.90625 67.722656 C 144.941406 67.738281 144.976562 67.753906 145.011719 67.765625 C 145.132812 71.496094 145.082031 76.523438 145.066406 77.699219 Z M 144.816406 77.671875 "/>
<path style=" stroke:none;fill-rule:nonzero;fill:rgb(0%,0%,0%);fill-opacity:1;" d="M 144.992188 67.242188 C 145.023438 67.238281 145.058594 67.246094 145.089844 67.261719 C 145.179688 67.296875 145.25 67.382812 145.253906 67.484375 L 145.253906 67.492188 C 145.253906 67.523438 145.246094 67.558594 145.234375 67.585938 C 145.15625 67.558594 145.078125 67.523438 145.003906 67.492188 C 145 67.40625 144.996094 67.324219 144.992188 67.242188 Z M 145.011719 67.765625 C 144.976562 67.753906 144.941406 67.738281 144.90625 67.722656 C 144.933594 67.734375 144.96875 67.742188 145.003906 67.742188 L 145.011719 67.742188 C 145.011719 67.75 145.011719 67.757812 145.011719 67.765625 Z M 145.011719 67.765625 "/>
<path style=" stroke:none;fill-rule:nonzero;fill:rgb(0%,0%,0%);fill-opacity:1;" d="M 145.003906 67.492188 C 144.925781 67.460938 144.851562 67.425781 144.773438 67.390625 C 144.8125 67.304688 144.894531 67.246094 144.992188 67.242188 C 144.996094 67.324219 145 67.40625 145.003906 67.492188 Z M 145.003906 67.492188 "/>
<path style=" stroke:none;fill-rule:nonzero;fill:rgb(0%,0%,0%);fill-opacity:1;" d="M 144.941406 67.25 C 144.925781 67.253906 144.910156 67.257812 144.898438 67.265625 C 144.914062 67.261719 144.925781 67.253906 144.941406 67.25 Z M 144.90625 67.722656 C 144.816406 67.6875 144.753906 67.597656 144.753906 67.503906 C 144.753906 67.484375 144.753906 67.460938 144.757812 67.441406 C 144.761719 67.425781 144.765625 67.410156 144.773438 67.394531 L 144.773438 67.390625 C 144.851562 67.425781 144.925781 67.460938 145.003906 67.492188 C 145.003906 67.574219 145.007812 67.65625 145.011719 67.742188 L 145.003906 67.742188 C 144.96875 67.742188 144.933594 67.734375 144.90625 67.722656 Z M 144.8125 77.921875 L 145.0625 77.949219 L 145.308594 77.980469 C 145.292969 78.105469 145.191406 78.199219 145.0625 78.199219 L 145.058594 78.199219 C 144.992188 78.199219 144.929688 78.171875 144.882812 78.125 C 144.835938 78.078125 144.8125 78.015625 144.8125 77.949219 Z M 144.8125 77.921875 "/>
<path style=" stroke:none;fill-rule:nonzero;fill:rgb(0%,0%,0%);fill-opacity:1;" d="M 144.753906 67.503906 C 144.753906 67.597656 144.8125 67.683594 144.90625 67.722656 C 144.855469 67.699219 144.804688 67.679688 144.757812 67.65625 C 144.753906 67.605469 144.753906 67.550781 144.753906 67.503906 Z M 144.773438 67.394531 Z M 144.773438 67.394531 "/>
<path style=" stroke:none;fill-rule:nonzero;fill:rgb(100%,78.823529%,38.431373%);fill-opacity:1;" d="M 144.738281 67.101562 C 142.960938 66.289062 141.675781 65.289062 141.492188 64.554688 C 141.375 64.089844 141.433594 63.703125 141.664062 63.40625 C 141.917969 63.078125 142.382812 62.882812 142.902344 62.882812 C 143.460938 62.882812 144.195312 63.128906 144.429688 63.828125 C 144.523438 64.113281 144.648438 64.921875 144.738281 67.101562 Z M 144.738281 67.101562 "/>
<path style=" stroke:none;fill-rule:nonzero;fill:rgb(0%,0%,0%);fill-opacity:1;" d="M 144.074219 77.832031 L 144.8125 77.921875 L 144.8125 77.949219 C 144.808594 78.066406 144.894531 78.171875 145.011719 78.195312 L 144.324219 78.113281 L 144.324219 82.925781 C 144.238281 82.90625 144.15625 82.886719 144.074219 82.863281 Z M 144.074219 77.832031 "/>
<path style=" stroke:none;fill-rule:nonzero;fill:rgb(0%,0%,0%);fill-opacity:1;" d="M 144.074219 85.335938 L 144.074219 82.863281 C 144.15625 82.886719 144.238281 82.90625 144.324219 82.925781 L 144.324219 85.335938 C 144.324219 85.34375 144.324219 85.355469 144.320312 85.363281 C 144.238281 85.351562 144.15625 85.34375 144.074219 85.335938 Z M 144.101562 77.585938 L 144.816406 77.671875 C 144.816406 77.796875 144.8125 77.878906 144.8125 77.921875 L 144.074219 77.832031 L 144.074219 82.863281 L 143.824219 82.796875 L 143.824219 77.832031 C 143.824219 77.761719 143.851562 77.691406 143.90625 77.644531 C 143.960938 77.597656 144.03125 77.578125 144.101562 77.585938 Z M 144.101562 77.585938 "/>
<path style=" stroke:none;fill-rule:nonzero;fill:rgb(0%,0%,0%);fill-opacity:1;" d="M 144.074219 82.863281 L 144.074219 85.335938 C 143.988281 85.324219 143.90625 85.316406 143.824219 85.308594 L 143.824219 82.796875 Z M 144.074219 82.863281 "/>
<path style=" stroke:none;fill-rule:nonzero;fill:rgb(0%,0%,0%);fill-opacity:1;" d="M 144.074219 85.335938 C 144.15625 85.34375 144.238281 85.351562 144.320312 85.363281 C 144.308594 85.488281 144.199219 85.585938 144.074219 85.585938 C 143.933594 85.585938 143.824219 85.476562 143.824219 85.335938 L 143.824219 85.308594 C 143.90625 85.316406 143.988281 85.324219 144.074219 85.335938 Z M 144.074219 85.335938 "/>
<path style=" stroke:none;fill-rule:nonzero;fill:rgb(100%,78.823529%,38.431373%);fill-opacity:1;" d="M 143.824219 82.796875 L 143.824219 85.308594 C 141.347656 85.039062 138.542969 84.847656 135.402344 84.796875 L 134.175781 77.378906 C 136.757812 79.859375 140.066406 81.753906 143.824219 82.796875 Z M 143.824219 82.796875 "/>
<path style=" stroke:none;fill-rule:nonzero;fill:rgb(88.627451%,16.078431%,32.54902%);fill-opacity:1;" d="M 143.125 26.625 L 142.574219 38 L 140.003906 26.625 Z M 143.125 26.625 "/>
<path style=" stroke:none;fill-rule:nonzero;fill:rgb(16.078431%,37.254902%,77.254902%);fill-opacity:1;" d="M 136.332031 93.273438 C 138.800781 93.34375 145.835938 93.683594 153.050781 95.441406 L 153 95.664062 L 152.375 98.875 C 142.574219 97 136.375 96.75 136.375 96.75 L 136.328125 93.457031 Z M 136.332031 93.273438 "/>
<path style=" stroke:none;fill-rule:nonzero;fill:rgb(0%,0%,0%);fill-opacity:1;" d="M 144.425781 63.828125 C 144.195312 63.128906 143.460938 62.882812 142.902344 62.882812 C 142.382812 62.882812 141.917969 63.078125 141.664062 63.40625 C 141.433594 63.703125 141.375 64.089844 141.492188 64.554688 C 141.675781 65.289062 142.960938 66.289062 144.738281 67.101562 C 144.648438 64.921875 144.523438 64.113281 144.425781 63.828125 Z M 141.25 64.617188 C 140.667969 62.320312 144.082031 62 144.664062 63.75 C 144.828125 64.238281 144.929688 65.574219 144.992188 67.242188 C 144.976562 67.242188 144.960938 67.246094 144.941406 67.25 C 144.925781 67.253906 144.914062 67.261719 144.898438 67.265625 C 144.839844 67.289062 144.796875 67.335938 144.773438 67.390625 C 142.859375 66.539062 141.46875 65.472656 141.25 64.617188 Z M 141.25 64.617188 "/>
<path style=" stroke:none;fill-rule:nonzero;fill:rgb(0%,0%,0%);fill-opacity:1;" d="M 144.664062 63.75 C 144.082031 62 140.667969 62.320312 141.25 64.617188 C 141.46875 65.472656 142.859375 66.539062 144.773438 67.390625 L 144.773438 67.394531 C 144.765625 67.410156 144.761719 67.425781 144.757812 67.441406 C 144.753906 67.460938 144.753906 67.484375 144.753906 67.503906 C 144.753906 67.550781 144.753906 67.605469 144.757812 67.65625 C 142.675781 66.746094 141.246094 65.609375 141.007812 64.679688 C 140.808594 63.90625 141.039062 63.390625 141.265625 63.101562 C 141.617188 62.652344 142.226562 62.382812 142.902344 62.382812 C 143.855469 62.382812 144.640625 62.890625 144.902344 63.671875 C 145.058594 64.152344 145.175781 65.347656 145.246094 67.324219 C 145.199219 67.300781 145.148438 67.28125 145.101562 67.261719 C 145.097656 67.261719 145.09375 67.261719 145.089844 67.261719 C 145.058594 67.246094 145.027344 67.242188 144.992188 67.242188 C 144.929688 65.574219 144.828125 64.238281 144.664062 63.75 Z M 144.664062 63.75 "/>
<path style=" stroke:none;fill-rule:nonzero;fill:rgb(66.27451%,85.098039%,100%);fill-opacity:1;" d="M 135.40625 111.683594 C 136.265625 112.289062 137.734375 113.335938 138.78125 114.191406 C 139.414062 114.703125 139.890625 115.140625 140 115.375 C 140.082031 115.554688 139.316406 116.269531 138.046875 117.28125 C 136.164062 115.351562 132.039062 112.847656 132.039062 112.847656 C 133.601562 111.875 134.6875 111.1875 134.6875 111.1875 C 134.6875 111.1875 134.96875 111.378906 135.40625 111.683594 Z M 135.40625 111.683594 "/>
<path style=" stroke:none;fill-rule:nonzero;fill:rgb(24.313725%,53.72549%,98.823529%);fill-opacity:1;" d="M 155.25 92.25 L 153.9375 95.664062 C 153.640625 95.585938 153.347656 95.511719 153.050781 95.441406 C 145.835938 93.683594 138.800781 93.34375 136.332031 93.273438 C 135.734375 93.261719 135.40625 93.261719 135.40625 93.261719 L 134.875 89.5625 L 134.871094 89.25 C 137.636719 89.195312 146.175781 89.273438 155.359375 91.835938 Z M 155.25 92.25 "/>
<path style=" stroke:none;fill-rule:nonzero;fill:rgb(88.627451%,16.078431%,32.54902%);fill-opacity:1;" d="M 126.902344 37.285156 L 129.125 47.5 L 122.726562 38.410156 Z M 125.625 79.875 L 116.5 86.9375 L 114.75 83.679688 Z M 121 64.617188 L 106.703125 62.632812 L 107.75 58.125 Z M 121 64.617188 "/>
<path style=" stroke:none;fill-rule:nonzero;fill:rgb(16.078431%,37.254902%,77.254902%);fill-opacity:1;" d="M 121.25 128.375 C 119.125 128.8125 112.5625 124.375 112.5625 124.375 L 112.371094 124.316406 C 112.539062 123.75 112.660156 123.261719 112.6875 122.9375 C 112.75 122.203125 111.984375 120.089844 111.21875 118.191406 C 113.664062 121.839844 117.644531 126.859375 121.773438 128.183594 C 121.550781 128.285156 121.375 128.351562 121.25 128.375 Z M 121.25 128.375 "/>
<path style=" stroke:none;fill-rule:nonzero;fill:rgb(11.764706%,9.803922%,31.372549%);fill-opacity:1;" d="M 107.328125 216.074219 C 110.535156 216.976562 113.417969 216.371094 114.492188 216.074219 L 114.625 217.3125 C 114.625 217.3125 121.9375 218.8125 123.375 219.316406 C 124.8125 219.824219 124.5625 222.5625 124.5625 222.5625 L 106.875 221.5 Z M 107.328125 216.074219 "/>
<path style=" stroke:none;fill-rule:nonzero;fill:rgb(25.098039%,21.960784%,50.980392%);fill-opacity:1;" d="M 105.386719 151.257812 L 105.386719 151.253906 C 106.476562 151.09375 107.566406 150.886719 108.625 150.625 C 117.8125 148.375 118.1875 147.5 118.1875 147.5 C 118.1875 147.5 118.417969 173.957031 116.167969 188.082031 C 116.167969 188.082031 115.8125 213.5625 114.9375 215.9375 C 114.9375 215.9375 114.78125 215.996094 114.492188 216.074219 C 113.417969 216.371094 110.535156 216.976562 107.328125 216.070312 C 107.175781 216.03125 107.027344 215.988281 106.875 215.9375 C 106.875 215.9375 106.957031 192.25 107.332031 189 C 107.707031 185.75 103.226562 160.3125 103.226562 160.3125 L 103.074219 160.273438 C 104.417969 155.039062 105.386719 151.257812 105.386719 151.257812 Z M 105.386719 151.257812 "/>
<path style=" stroke:none;fill-rule:nonzero;fill:rgb(11.764706%,9.803922%,31.372549%);fill-opacity:1;" d="M 104.625 101.0625 C 104.625 101.0625 111.484375 102.308594 107.574219 107.921875 C 106.246094 107.988281 104.292969 108.160156 102.816406 108.296875 C 101.628906 108.410156 100.75 108.5 100.75 108.5 L 100.066406 105.8125 L 99.6875 104.3125 C 99.6875 104.3125 104.4375 102.1875 104.625 101.0625 Z M 104.625 101.0625 "/>
<path style=" stroke:none;fill-rule:nonzero;fill:rgb(16.078431%,37.254902%,77.254902%);fill-opacity:1;" d="M 104.230469 113.167969 L 104.230469 114.5 L 99.988281 111.816406 Z M 104.230469 113.167969 "/>
<path style=" stroke:none;fill-rule:nonzero;fill:rgb(66.27451%,85.098039%,100%);fill-opacity:1;" d="M 102.816406 108.296875 L 104.230469 113.167969 L 99.988281 111.816406 L 99 111.5 L 100.75 108.5 C 100.75 108.5 101.628906 108.410156 102.816406 108.296875 Z M 102.816406 108.296875 "/>
<path style=" stroke:none;fill-rule:nonzero;fill:rgb(99.215686%,63.137255%,50.588235%);fill-opacity:1;" d="M 98.246094 95.65625 C 98.476562 95.609375 98.585938 95.210938 98.488281 94.773438 C 98.390625 94.332031 98.128906 94.015625 97.898438 94.066406 C 97.667969 94.117188 97.558594 94.515625 97.652344 94.953125 C 97.75 95.390625 98.015625 95.707031 98.246094 95.65625 Z M 100.800781 94.152344 C 100.898438 94.59375 101.164062 94.90625 101.390625 94.859375 C 101.621094 94.808594 101.734375 94.410156 101.636719 93.96875 C 101.539062 93.53125 101.273438 93.214844 101.046875 93.265625 C 100.816406 93.316406 100.703125 93.710938 100.800781 94.152344 Z M 100.296875 95.667969 C 100.324219 95.792969 100.886719 98.085938 101.375 98.875 L 102.457031 97.5 C 101.53125 97.09375 100.367188 95.75 100.296875 95.667969 Z M 90.625 98.6875 C 90.75 96.5625 92.75 96.8125 92.75 96.8125 L 92.835938 95.1875 C 92.835938 95.1875 94.753906 93.953125 96.074219 92.03125 C 96.164062 92.003906 96.246094 91.984375 96.324219 91.964844 C 96.59375 91.925781 97.199219 91.878906 97.578125 91.960938 C 97.710938 91.988281 97.84375 91.90625 97.875 91.769531 C 97.902344 91.636719 97.816406 91.503906 97.683594 91.472656 C 97.273438 91.386719 96.734375 91.417969 96.449219 91.449219 C 97.195312 90.152344 97.609375 88.601562 97.0625 86.9375 C 97.0625 86.9375 100.460938 86.996094 101.699219 90.472656 C 100.960938 90.609375 100.410156 90.890625 100.386719 90.902344 C 100.261719 90.96875 100.214844 91.117188 100.277344 91.238281 C 100.324219 91.324219 100.410156 91.375 100.5 91.375 C 100.539062 91.375 100.578125 91.363281 100.613281 91.347656 C 100.621094 91.34375 101.140625 91.078125 101.820312 90.953125 C 101.832031 90.953125 101.84375 90.949219 101.855469 90.949219 C 102.121094 91.753906 102.414062 92.648438 102.703125 93.558594 C 103.730469 96.761719 104.765625 100.210938 104.625 101.0625 C 104.4375 102.1875 99.6875 104.3125 99.6875 104.3125 C 99.6875 104.3125 98.3125 104.773438 96.5 104.03125 C 96.5 104.03125 97.609375 105.546875 100.066406 105.8125 L 100.75 108.5 L 99 111.5 L 94.3125 110.0625 C 96.3125 105.25 93.625 100.375 93.625 100.375 C 93.625 100.375 90.5 100.8125 90.625 98.6875 Z M 101.21875 101.957031 C 102.082031 101.375 102.167969 100 102.167969 100 C 102.167969 100 100.125 100.667969 98.292969 100.5 C 98.292969 100.5 100.351562 102.542969 101.21875 101.957031 Z M 101.21875 101.957031 "/>
<path style=" stroke:none;fill-rule:nonzero;fill:rgb(96.862745%,45.882353%,33.72549%);fill-opacity:1;" d="M 102.457031 97.5 L 101.375 98.875 C 100.886719 98.085938 100.324219 95.792969 100.296875 95.667969 C 100.367188 95.75 101.53125 97.09375 102.457031 97.5 Z M 102.457031 97.5 "/>
<path style=" stroke:none;fill-rule:nonzero;fill:rgb(100%,100%,100%);fill-opacity:1;" d="M 102.167969 100 C 102.167969 100 102.082031 101.375 101.21875 101.957031 C 100.351562 102.542969 98.292969 100.5 98.292969 100.5 C 100.125 100.667969 102.167969 100 102.167969 100 Z M 102.167969 100 "/>
<path style=" stroke:none;fill-rule:nonzero;fill:rgb(0%,0%,0%);fill-opacity:1;" d="M 102.800781 90.914062 C 102.511719 90.878906 102.195312 90.894531 101.855469 90.949219 C 101.828125 90.871094 101.800781 90.789062 101.777344 90.710938 C 101.765625 90.683594 101.761719 90.652344 101.75 90.625 C 101.734375 90.574219 101.714844 90.523438 101.699219 90.472656 L 101.734375 90.464844 C 102.136719 90.390625 102.511719 90.378906 102.863281 90.421875 C 102.996094 90.433594 103.097656 90.558594 103.078125 90.699219 C 103.066406 90.832031 102.941406 90.933594 102.800781 90.914062 Z M 102.800781 90.914062 "/>
<path style=" stroke:none;fill-rule:nonzero;fill:rgb(13.72549%,12.156863%,12.54902%);fill-opacity:1;" d="M 101.390625 94.859375 C 101.164062 94.90625 100.898438 94.59375 100.800781 94.152344 C 100.703125 93.710938 100.816406 93.316406 101.046875 93.265625 C 101.273438 93.214844 101.539062 93.53125 101.636719 93.96875 C 101.734375 94.410156 101.621094 94.808594 101.390625 94.859375 Z M 101.390625 94.859375 "/>
<path style=" stroke:none;fill-rule:nonzero;fill:rgb(0%,0%,0%);fill-opacity:1;" d="M 101.820312 90.953125 C 101.140625 91.078125 100.621094 91.34375 100.613281 91.347656 C 100.578125 91.363281 100.539062 91.375 100.5 91.375 C 100.410156 91.375 100.324219 91.324219 100.277344 91.238281 C 100.214844 91.117188 100.261719 90.96875 100.386719 90.902344 C 100.410156 90.890625 100.960938 90.609375 101.699219 90.472656 C 101.714844 90.523438 101.734375 90.574219 101.75 90.625 C 101.761719 90.652344 101.765625 90.683594 101.777344 90.710938 C 101.800781 90.789062 101.828125 90.871094 101.855469 90.949219 C 101.84375 90.949219 101.832031 90.953125 101.820312 90.953125 Z M 101.820312 90.953125 "/>
<path style=" stroke:none;fill-rule:nonzero;fill:rgb(96.862745%,45.882353%,33.72549%);fill-opacity:1;" d="M 99.6875 104.3125 L 100.066406 105.8125 C 97.609375 105.546875 96.5 104.03125 96.5 104.03125 C 98.3125 104.773438 99.6875 104.3125 99.6875 104.3125 Z M 99.6875 104.3125 "/>
<path style=" stroke:none;fill-rule:nonzero;fill:rgb(66.27451%,85.098039%,100%);fill-opacity:1;" d="M 99 111.5 L 96.582031 115.332031 L 94.140625 111.503906 L 94.140625 111.5 L 93.324219 110.222656 L 93.324219 110.21875 L 94.3125 110.0625 Z M 99 111.5 "/>
<path style=" stroke:none;fill-rule:nonzero;fill:rgb(13.72549%,12.156863%,12.54902%);fill-opacity:1;" d="M 97.898438 94.066406 C 98.128906 94.015625 98.390625 94.332031 98.488281 94.773438 C 98.585938 95.210938 98.476562 95.609375 98.246094 95.65625 C 98.015625 95.707031 97.75 95.390625 97.652344 94.953125 C 97.558594 94.515625 97.667969 94.117188 97.898438 94.066406 Z M 97.898438 94.066406 "/>
<path style=" stroke:none;fill-rule:nonzero;fill:rgb(16.078431%,37.254902%,77.254902%);fill-opacity:1;" d="M 96.75 117.5 L 94.140625 111.503906 L 96.582031 115.332031 L 99 111.5 L 99.988281 111.816406 Z M 96.75 117.5 "/>
<path style=" stroke:none;fill-rule:nonzero;fill:rgb(0%,0%,0%);fill-opacity:1;" d="M 97.578125 91.960938 C 97.199219 91.878906 96.59375 91.925781 96.324219 91.964844 C 96.246094 91.984375 96.164062 92.003906 96.074219 92.03125 C 96.148438 91.925781 96.214844 91.824219 96.28125 91.71875 L 96.285156 91.71875 C 96.339844 91.628906 96.394531 91.539062 96.449219 91.449219 C 96.734375 91.417969 97.273438 91.386719 97.683594 91.472656 C 97.816406 91.503906 97.902344 91.636719 97.875 91.769531 C 97.84375 91.90625 97.710938 91.988281 97.578125 91.960938 Z M 97.578125 91.960938 "/>
<path style=" stroke:none;fill-rule:nonzero;fill:rgb(0%,0%,0%);fill-opacity:1;" d="M 96.074219 92.03125 C 95.503906 92.1875 94.734375 92.460938 94.492188 92.714844 C 94.445312 92.765625 94.378906 92.792969 94.3125 92.792969 C 94.25 92.792969 94.1875 92.769531 94.140625 92.722656 C 94.09375 92.675781 94.066406 92.613281 94.0625 92.546875 C 94.0625 92.480469 94.085938 92.417969 94.132812 92.371094 C 94.605469 91.871094 96.058594 91.511719 96.226562 91.476562 L 96.261719 91.46875 C 96.292969 91.464844 96.359375 91.453125 96.449219 91.449219 C 96.394531 91.539062 96.339844 91.628906 96.285156 91.71875 L 96.28125 91.71875 C 96.214844 91.824219 96.148438 91.925781 96.074219 92.03125 Z M 96.074219 92.03125 "/>
<path style=" stroke:none;fill-rule:nonzero;fill:rgb(24.313725%,53.72549%,98.823529%);fill-opacity:1;" d="M 88.578125 147.125 C 88.589844 146.625 87.644531 144.351562 87.644531 144.351562 L 88.222656 144.078125 C 88.222656 144.078125 91.6875 136.6875 91.3125 134.6875 C 91.140625 133.773438 88.273438 126.765625 86.75 123.070312 C 86.191406 121.71875 85.8125 120.8125 85.8125 120.8125 L 85.613281 120.773438 L 84.140625 127.980469 L 81.875 132.25 L 86.851562 141.527344 C 83.96875 142.242188 82.085938 143.558594 81.203125 144.296875 C 78.875 140.523438 74.609375 133.5625 74.5625 133.0625 C 74.5 132.375 83.0625 112.5 83.375 112.125 C 83.449219 112.039062 84.082031 111.878906 85.011719 111.6875 C 87.320312 111.210938 91.441406 110.527344 93.324219 110.21875 L 93.324219 110.222656 L 94.140625 111.5 L 94.140625 111.503906 L 96.75 117.5 L 99.988281 111.816406 L 104.230469 114.5 L 104.230469 113.167969 L 102.816406 108.296875 C 104.292969 108.160156 106.246094 107.988281 107.574219 107.921875 C 108.378906 107.878906 108.953125 107.875 109.0625 107.9375 C 109.5 108.1875 120.3125 119.4375 121.0625 119.375 C 121.59375 119.328125 128.230469 115.226562 132.039062 112.847656 C 132.039062 112.847656 136.164062 115.351562 138.046875 117.28125 C 133.917969 120.566406 124.484375 126.964844 121.773438 128.183594 C 117.644531 126.859375 113.664062 121.839844 111.21875 118.191406 C 111.984375 120.089844 112.75 122.203125 112.6875 122.9375 C 112.660156 123.261719 112.539062 123.75 112.371094 124.316406 C 111.789062 126.253906 110.625 129.0625 110.625 129.0625 C 110.625 129.0625 116.625 140 118.1875 147.5 C 118.1875 147.5 117.8125 148.375 108.625 150.625 C 107.566406 150.886719 106.476562 151.09375 105.386719 151.253906 C 97.007812 152.523438 88.265625 151.257812 88.265625 151.257812 C 88.449219 149.371094 88.570312 147.378906 88.578125 147.125 Z M 88.578125 147.125 "/>
<path style=" stroke:none;fill-rule:nonzero;fill:rgb(11.764706%,9.803922%,31.372549%);fill-opacity:1;" d="M 90.625 98.6875 C 90.5 100.8125 93.625 100.375 93.625 100.375 C 93.625 100.375 96.3125 105.25 94.3125 110.0625 L 93.324219 110.21875 C 91.441406 110.527344 87.320312 111.210938 85.011719 111.6875 L 85.011719 111.683594 C 85.003906 111.683594 82.75 111.683594 82.4375 108.125 C 82.125 104.5625 86.625 102.75 87.0625 100.5625 C 87.5 98.375 84.625 96.5625 85.125 93.0625 C 85.625 89.5625 88.4375 85.125 96.5 83.8125 C 104.5625 82.5 105.71875 89.613281 102.703125 93.558594 C 102.414062 92.648438 102.121094 91.753906 101.855469 90.949219 C 102.195312 90.894531 102.511719 90.878906 102.800781 90.914062 C 102.867188 90.921875 102.933594 90.90625 102.988281 90.863281 C 103.039062 90.824219 103.070312 90.761719 103.078125 90.699219 C 103.089844 90.632812 103.070312 90.566406 103.027344 90.511719 C 102.988281 90.460938 102.929688 90.429688 102.863281 90.421875 C 102.511719 90.378906 102.136719 90.390625 101.734375 90.464844 L 101.699219 90.472656 C 100.460938 86.996094 97.0625 86.9375 97.0625 86.9375 C 97.609375 88.601562 97.195312 90.152344 96.449219 91.449219 C 96.359375 91.453125 96.292969 91.464844 96.261719 91.46875 L 96.226562 91.476562 C 96.058594 91.511719 94.605469 91.871094 94.132812 92.371094 C 94.039062 92.46875 94.039062 92.628906 94.140625 92.722656 C 94.1875 92.769531 94.25 92.792969 94.3125 92.792969 C 94.378906 92.792969 94.445312 92.765625 94.492188 92.714844 C 94.734375 92.460938 95.503906 92.1875 96.074219 92.03125 C 94.753906 93.953125 92.835938 95.1875 92.835938 95.1875 L 92.75 96.8125 C 92.75 96.8125 90.75 96.5625 90.625 98.6875 Z M 90.625 98.6875 "/>
<path style=" stroke:none;fill-rule:nonzero;fill:rgb(66.27451%,85.098039%,100%);fill-opacity:1;" d="M 86.851562 141.527344 L 88.222656 144.078125 L 87.644531 144.351562 L 83.421875 146.34375 L 82.6875 146.6875 C 82.6875 146.6875 82.085938 145.71875 81.203125 144.296875 C 82.085938 143.558594 83.96875 142.242188 86.851562 141.527344 Z M 86.851562 141.527344 "/>
<path style=" stroke:none;fill-rule:nonzero;fill:rgb(99.215686%,63.137255%,50.588235%);fill-opacity:1;" d="M 87.644531 144.351562 C 87.644531 144.351562 88.589844 146.625 88.578125 147.125 C 88.570312 147.378906 88.449219 149.371094 88.265625 151.257812 C 88.09375 153.070312 87.871094 154.78125 87.644531 154.75 C 87.472656 154.726562 87.039062 154.464844 86.523438 154.03125 C 85.671875 153.308594 84.59375 152.113281 84.125 150.75 C 83.375 148.5625 83.421875 146.34375 83.421875 146.34375 Z M 87.644531 144.351562 "/>
<path style=" stroke:none;fill-rule:nonzero;fill:rgb(16.078431%,37.254902%,77.254902%);fill-opacity:1;" d="M 85.5 191.625 C 85.6875 188.0625 86.425781 154.503906 86.523438 154.03125 C 87.039062 154.464844 87.472656 154.726562 87.644531 154.75 C 87.871094 154.78125 88.09375 153.070312 88.265625 151.257812 C 88.265625 151.257812 97.007812 152.523438 105.386719 151.253906 L 105.386719 151.257812 C 105.386719 151.257812 104.417969 155.039062 103.074219 160.273438 C 100.183594 171.496094 95.554688 189.382812 95 190.875 C 95 190.875 94.5625 201.046875 89.125 214.109375 C 89.125 214.109375 88.925781 214.171875 88.5625 214.25 C 87.453125 214.488281 84.816406 214.859375 81.695312 213.917969 C 81.34375 213.808594 80.988281 213.6875 80.625 213.546875 C 80.625 213.546875 85.3125 195.1875 85.5 191.625 Z M 85.5 191.625 "/>
<path style=" stroke:none;fill-rule:nonzero;fill:rgb(11.764706%,9.803922%,31.372549%);fill-opacity:1;" d="M 81.695312 213.917969 C 84.816406 214.859375 87.453125 214.488281 88.5625 214.25 L 87.875 221.1875 L 70.9375 221.5 C 70.9375 221.5 70.9375 219.4375 71.4375 218.4375 C 71.9375 217.4375 80.625 215.875 80.625 215.875 Z M 81.695312 213.917969 "/>
<path style=" stroke:none;fill-rule:nonzero;fill:rgb(16.078431%,37.254902%,77.254902%);fill-opacity:1;" d="M 85.8125 120.8125 C 85.8125 120.8125 86.191406 121.71875 86.75 123.074219 L 86.746094 123.074219 L 84.140625 127.980469 L 85.613281 120.773438 Z M 85.8125 120.8125 "/>
<path style=" stroke:none;fill-rule:nonzero;fill:rgb(100%,100%,100%);fill-opacity:1;" d="M 165.75 61.082031 C 165.503906 58.746094 163.453125 55.050781 161.585938 53.75 C 161.054688 53.378906 159.285156 52.523438 158.617188 53.117188 C 157.523438 54.085938 159.144531 55.761719 159.75 56.417969 C 160.761719 57.507812 161.875 58.625 162.546875 59.90625 C 163.046875 60.863281 163.226562 62.125 163.875 62.957031 C 165.695312 65.296875 166.628906 62.339844 165.582031 60.582031 M 165.082031 67.582031 C 164.851562 68.15625 164.160156 70.394531 164.414062 71.082031 C 164.804688 72.136719 165.996094 72.417969 166.726562 71.417969 C 167.878906 69.832031 165.425781 66.371094 164.75 68.417969 "/>
</g>
</svg>
