<?xml version="1.0" encoding="utf-8"?>
<!-- Generator: Adobe Illustrator 25.4.1, SVG Export Plug-In . SVG Version: 6.00 Build 0)  -->
<svg version="1.1" xmlns="http://www.w3.org/2000/svg" xmlns:xlink="http://www.w3.org/1999/xlink" x="0px" y="0px"
	 viewBox="0 0 512 512" style="enable-background:new 0 0 512 512;" xml:space="preserve">
<style type="text/css">
	.st0{fill:url(#SVGID_1_);}
	.st1{fill:#95C11F;}
	.st2{fill:#FFF200;}
</style>
<g id="Слой_1">
	<g transform="translate(0.000000,512.000000) scale(0.100000,-0.100000)">
		<path d="M0,3499V1877l87,7c49,4,171,7,272,6c188-1,304,7,296,20c-2,4-16,5-30,2c-30-5-32,5-4,29c19,17,41,16,65-2c5-5,37-9,70-10
			c49-2,67,3,100,23c22,14,54,29,72,33c27,5,31,9,21,21c-9,12-6,14,22,14c25,0,30,3,19,10c-8,5-11,12-8,16c6,6,55-23,128-77
			c31-23,31-23,81-6c40,15,66,17,130,11c80-7,96,0,63,27c-22,18-75,114-96,174c-11,31-18,78-18,127c0,45-4,78-10,78c-5,0-10,7-10,15
			s6,12,14,9c9-3,17,6,24,26c9,25,8,32-3,37c-24,8-19,36,5,30c22-6,26,3,9,20c-16,16-1,35,22,28c11-4,19-2,19,4s-5,11-11,11
			s-9,6-6,13c2,6,15,11,28,9c22-2,22-1,7,11c-22,17-9,38,20,30c12-3,22-7,22-8c0-2-16-27-35-55c-20-29-34-58-32-63c2-6-5-19-16-30
			c-15-15-17-27-13-55c5-25,4-32-3-23c-14,22-3-165,15-234c8-33,32-85,52-115c31-46,43-56,74-61c37-6,56-17,178-105
			c54-39,72-47,104-45s37-1,32-14c-3-9-6-19-6-22s-7,0-15,7c-8,6-18,10-23,8c-5-1,25-34,67-72s105-97,141-131c36-33,110-102,165-152
			s165-157,245-238c141-144,216-205,251-205c10,0,20-6,23-12c3-7,4-4,3,7c-2,11-9,19-15,18c-7-2-12,2-12,7c0,6,4,10,9,10
			c10,0-25,106-79,238c-30,71-50,102-50,74c0-11-100-66-107-58c-3,3-2,13,2,23c5,10,7,24,6,31s3,29,9,48c7,19,13,68,15,109
			c4,97,27,175,59,198c14,11,28,32,31,48c4,16,15,34,26,39c10,6,19,17,19,24c0,28,37,96,63,116c15,12,27,28,27,35s11,27,25,43
			c14,17,25,35,25,40c0,6,6,17,13,24c25,25,57,93,71,153c8,33,22,85,30,115c9,30,16,69,16,86c0,18,4,34,9,36s4,29-1,63
			c-5,33-11,85-14,115c-2,30-12,131-23,225c-18,166-18,201,0,189c5-3,9,0,9,6c0,17,43,30,56,17c14-15,34-95,34-136c0-36,33-94,55-97
			c13-2,15,4,10,29c-6,30-5,31,10,13c8-11,15-28,15-38s4-18,9-18c12,0,11,41-1,56c-5,7-3,16,5,23c11,8,19,5,35-14c18-20,28-23,54-18
			c18,3,37,10,42,14c6,5,17,9,25,9c14,0,13-90-3-615c-1-27-3-143-4-257l-2-206l-29-7c-16-3-32-13-35-21c-3-9-11-12-18-8
			c-10,5-10,4-1-6s18-9,44,4c37,19,39,19,39,8c0-5-10-14-22-19c-21-9-17-11,27-18c28-3,70-13,95-21l45-14l115-226
			c63-124,117-227,120-229s3,38,0,88l-4,92l-6-70c-11-124-11,655,1,1655c6,536,13,977,15,979c9,10,12-9,19-99c8-103,15-131,15-57
			c0,25,4,48,9,52c6,3,6,17-1,37c-8,22-8,48,1,93c6,34,11,71,11,81c-1,17-2,17-13,4c-15-20-58-50-71-50c-6,0-1,7,11,15
			c23,16,65,94,57,107c-3,4,1,8,10,8c17,0,30,38,46,128c14,80,38,120,97,162c142,102,351-16,247-140c-21-25-33-30-58-28
			c-28,3-31,7-34,41c-2,21,1,37,7,37s11-4,11-10c0-5,5-10,10-10c19,0,10,29-12,36c-47,15-65-60-23-101c50-51,130-14,156,73
			c7,24,17,40,23,38c6-3,35-12,64-21c49-16,57-16,102-1c63,21,67,20,73-6c5-18,8-19,22-8c12,10,15,23,10,46c-3,20-1,35,6,39
			c6,4,23,35,39,69c30,68,61,101,84,93c10-4,20,2,26,14c8,14,15,17,27,11c17-10,44,10,56,41c9,24,34,32,53,16c11-9,15-25,12-52
			c-3-34-2-36,10-20c9,11,12,34,9,61c-2,23-1,42,4,42c18,0,129-122,129-142c0-30-19-58-39-58c-10,0-26-9-36-20s-24-20-31-20
			s-18-9-24-20c-8-16-21-20-58-20c-45,0-49-2-65-35c-23-48-22-52,13-70c25-13,30-22,31-53l1-37l8,33c22,94,33,26,26-165
			c-3-87-8-168-12-180c-6-23,10-44,58-75c26-17,26-20,22-95l-4-78l15,55c8,30,14,64,15,76c0,26,34,58,54,51c9-4,21,2,30,15
			c8,11,19,17,25,14c6-4,15,11,21,35c13,49,7,63-8,20c-13-36-9-34-52-20c-30,11-32,14-26,48c3,20,13,86,22,146c18,119,33,176,49,178
			c6,1,11-8,13-20c3-18,10-23,33-23s29-4,29-22c0-19,2-20,10-8s10,12,10-5c1-27,24,27,34,78c4,20,13,37,20,37c24,0,25-12,4-41
			c-34-45-10-49,28-4l33,40l-47,24c-26,13-50,28-54,34c-11,17-62,77-76,90c-7,7-22,20-33,29c-12,11-19,31-19,52c0,55,8,66,49,66
			c42,0,82,33,100,83c13,34,0,97-24,117c-15,12-21,50-9,50c4,0,22-10,41-22c35-21,35-21,24,0c-14,27-73,46-122,39c-21-3-40-3-43,0
			s8,23,24,44c34,42,60,98,60,129c0,35-17,22-30-25c-23-84-127-172-235-201c-112-30-281-8-321,42c-12,15-27,24-33,20
			c-20-13-76,26-149,103l-73,76l-95,3c-69,3-99,0-111-10s-17-10-20-1s-113,12-447,13h-443l5-26c4-23,2-26-12-21c-10,4-20,7-22,7
			s-4,7-4,15c0,23-43,28-123,17c-86-13-142-39-180-82c-21-23-33-29-49-24c-17,5-20,3-15-10s3-15-11-7c-9,5-25,19-34,30
			c-10,12-24,21-31,21c-8,0-24,11-37,25s-29,25-36,25s-14,6-16,13c-4,9-249,13-1171,15L0,5120V3499z M3750,5066c0-3-4-8-10-11
			c-5-3-10-1-10,4c0,6,5,11,10,11C3746,5070,3750,5068,3750,5066z M3989,5054c24-10,50-31,68-56c58-85,23-218-63-234
			c-43-8-74,16-74,56c0,38,22,55,49,38c28-17,38-3,16,22c-23,25-57,26-80,0c-14-15-17-31-13-70c5-53,25-81,66-95
			c56-17,140,47,163,125c7,22,15,40,19,40c3,0,19-14,36-31c16-17,42-37,57-45c28-15,28-34,1-34c-9,0-60-23-115-50
			c-138-70-249-100-376-105c-125-4-143,0-143,31s33,156,55,209c24,56,104,154,132,161c12,4,21,10,18,14c-7,12,65,39,107,39
			C3933,5070,3967,5063,3989,5054z M2875,5006c17-12,69-60,118-108c77-77,87-91,87-123c0-39-7-42-52-19c-19,10-43,14-62,10
			c-91-16-170-25-177-20c-5,3-9,22-9,43c0,64-83,125-97,71c-7-27-11-26-60,19c-60,55-56,89,14,132C2706,5054,2809,5051,2875,5006z
			 M3595,4958c-4-13-10-39-15-58l-8-35l-1,46c0,25,4,50,11,57C3600,4986,3603,4983,3595,4958z M3060,4929c0-6-4-7-10-4
			c-5,3-10,11-10,16c0,6,5,7,10,4C3056,4942,3060,4934,3060,4929z M4857,4855c34-22,46-80,26-122c-9-19-26-41-37-48
			c-24-16-66-9-66,10c0,7-6,15-14,18c-11,5-13-1-9-27c3-19,1-36-5-40c-12-7-165,146-170,170c-4,17,74,54,133,63
			C4761,4887,4825,4876,4857,4855z M2746,4808c3-11,4-22,1-24c-7-8-57,38-52,47C2704,4844,2739,4828,2746,4808z M4413,4820
			c5-4-10-10-33-12c-42-4-56,3-45,23C4342,4842,4398,4834,4413,4820z M4430,4770c0-5-4-10-10-10c-5,0-10,5-10,10c0,6,5,10,10,10
			C4426,4780,4430,4776,4430,4770z M3567,4723c-3-10-5-2-5,17s2,27,5,18C3569,4748,3569,4732,3567,4723z M4360,4741
			c14-27,13-44-4-67c-14-18-15-18-36,9c-13,16-34,33-49,39l-26,10l30,14C4318,4765,4348,4763,4360,4741z M2915,4678
			c6-18,17-33,25-34s20-2,26-2c13-2,49-90,40-99c-3-4-6-2-6,3c0,6-7,19-16,30c-15,19-16,19-9-1c4-11,8-31,10-43c1-13,10-31,19-40
			c16-16,17-15,11,13s-5,28,15-8c12-21,18-46,15-56c-3-11,1-25,8-33c8-7,16-20,20-28c4-11,6-10,7,5l1,20l9-20c5-11,10-36,11-55l2-35
			l7,35c5,22,8,27,9,13c0-12,6-25,12-29c6-3,8-17,4-32c-5-21,28-173,43-192c6-9,22,25,18,40c-2,8-7,29-11,45l-7,30l25-23l25-23
			l21,22c22,23,29,69,11,69c-5,0-10-5-10-11c0-5-5-7-10-4c-6,4-8,10-5,16c11,16-7,79-22,79c-9,0-12,6-9,18c4,11-2,27-13,39
			c-12,13-23,43-27,75c-6,50-5,52,10,33c16-19,16-19,10,10l-6,30l20-30c10-16,29-39,41-49c11-11,21-25,21-33s16-29,36-48
			c34-32,35-36,28-82c-3-26-10-56-15-65s-9-23-8-30c0-7,4-4,9,7c8,18,9,18,9,2c1-13,8-18,24-16c24,4,47-7,47-22c0-16-18-10-23,9
			s-12-48-9-90c2-21-2-26-13-22c-8,4-15,17-15,29c0,13-5,27-10,30c-16,10-23-21-10-45c9-17,9-24-3-33c-12-10-12-18,3-55
			c9-23,19-39,23-36c4,4,7-5,7-20c0-45-22-25-37,34c-7,30-15,56-18,58c-2,2-17-5-33-17c-17-12-34-21-40-21c-5,0-21-9-36-21
			c-18-14-26-16-27-7c0,7-5,1-10-14c-8-20-4-67,17-185c27-161,28-205,9-523c-1-19,6-54,17-78c22-53,22-52,3-52c-8,0-15-9-15-19
			c0-27-15-35-17-9c-3,32-11,33-35,2c-18-22-44-91-48-123c0-3,14,8,30,24l30,29v-47c0-44-1-46-36-56c-31-9-40-7-65,11
			c-28,21-39,53-20,60c6,2,11,29,12,62c2,43-2,62-13,70c-8,6-17,24-20,39c-6,33,13,47,66,47c43,0,41,25-3,33c-36,7-52,44-45,103
			c3,26,0,69-6,98c-25,110-33,136-40,136c-4,0-11,12-15,27c-3,15-13,42-20,60c-12,28-17,32-32,24c-15-7-21-4-30,15s-8,24,3,24
			c18,0,18,14-2,51c-8,17-13,36-11,42c3,7,17-15,33-48c22-48,29-56,35-40c6,19,8,18,16-4c9-23,10-22,16,15c4,22,2,56-3,75
			c-6,18-10,46-10,62c0,40-38,89-63,81c-14-5-19-2-15,7c18,49,19,59,4,59c-9,0-19,0-23,1c-14,1-41,30-46,48c-7,27,24,20,57-14
			c25-25,29-26,38-11c5,9,14,13,20,10c7-5,9,2,4,20c-5,19-3,26,8,26c8,0,17,6,20,13c3,8,11,5,24-10c18-20,21-21,26-6
			c8,19-2,101-15,123c-6,11-8,8-9-12c0-15-4-29-9-32c-4-3-6,6-3,21c3,18,1,24-7,19c-7-5-11,2-11,19c0,15,4,24,10,20c15-9,12,17-6,60
			c-8,20-13,39-10,42c2,2,7-5,11-16c12-37,25-22,25,28c0,27,4,60,9,73c7,17,4,29-9,45c-10,12-20,20-23,17c-10-10-38,57-37,84
			c4,49,0,73-9,68c-9-6-22,40-13,49C2899,4716,2906,4709,2915,4678z M4170,4691c0-6-4-13-10-16c-16-10-12-62,6-79c18-18,34-21,34-6
			c0,6-4,10-10,10c-5,0-12,11-16,25c-14,56,66,87,117,46c20-16,24-29,24-69c0-41-6-57-31-88c-34-43-54-53-54-29c0,14-7,16-32,12
			c-24-3-39,1-56,16c-21,20-23,20-36,2c-7-10-18-15-25-11c-6,4-18,2-26-4c-21-18-78-4-105,25c-13,14-41,31-62,37c-48,14-40,22,42,42
			c36,9,99,34,140,55C4148,4700,4170,4707,4170,4691z M3348,4630c-12-16-23-30-25-30s3,14,12,30c9,17,20,30,26,30
			C3366,4660,3361,4647,3348,4630z M2900,4624c0-8-5-12-10-9c-6,4-8,11-5,16C2894,4645,2900,4642,2900,4624z M3177,4553
			c-3-10-5-4-5,12c0,17,2,24,5,18C3179,4576,3179,4562,3177,4553z M3566,4580c5-5,43-10,84-12c66-3,72-4,49-15c-45-20-89-64-115-114
			c-13-27-26-49-28-49s-4,41-5,90c0,50-3,95-6,100C3537,4593,3553,4593,3566,4580z M2944,4415l6-50l-15,50c-8,28-17,64-20,80l-5,30
			l14-30C2932,4478,2941,4442,2944,4415z M3510,4474c0-19,9-56,19-82c32-78,34-86,32-102c-4-23-11-26-21-10c-7,11-10,8-10-14
			c0-23-3-27-12-18s-14,7-24-6c-13-16-13-16-14,1c0,10,5,50,11,88c6,39,9,73,6,75c-2,2-15-23-28-57c-13-33-33-68-44-77
			c-15-13-17-13-8-1c25,31,73,165,73,202c0,20,5,37,10,37C3506,4510,3510,4494,3510,4474z M2834,4424c3-8,2-12-4-9s-10,10-10,16
			C2820,4445,2827,4442,2834,4424z M3109,4395c0-5-4-3-9,5s-9,22-9,30C3091,4446,3108,4414,3109,4395z M3164,4374c3-8,2-12-4-9
			s-10,10-10,16C3150,4395,3157,4392,3164,4374z M3330,4380c0-5-5-10-11-10c-5,0-7,5-4,10c3,6,8,10,11,10
			C3328,4390,3330,4386,3330,4380z M2860,4309c0-18-10-8-25,24l-16,32l21-24C2851,4328,2860,4314,2860,4309z M2808,4314
			c-2-10-11-18-20-20c-22-3-23,5-1,36C2804,4354,2815,4346,2808,4314z M4674,4305c21-2,42-7,47-12s0-64-12-138
			c-26-170-27-175-41-175c-10,0-7,73,9,173c3,23,2,37-5,37c-6,0-13-38-17-87c-9-103-17-123-50-123h-25v171v171l28-7
			C4623,4310,4652,4306,4674,4305z M2772,4265c3,3,18-9,33-27s37-37,49-43c24-12,34-45,13-45c-11,0-13-9-7-42c5-24,7-45,4-47
			c-4-4-24,45-24,58c0,8-36,24-50,23c-3,0-6,8-6,19c0,26,13,24,27-3c25-46,19,2-6,51c-26,52-42,68-30,31c4-14,2-20-9-20
			c-9,0-18,12-22,28c-3,15-8,36-11,47c-3,15,0,13,14-8C2758,4272,2769,4262,2772,4265z M2920,4268c0-17-3-28-7-24c-5,4-8,20-8,36
			c0,15,3,26,8,23C2917,4301,2920,4285,2920,4268z M3214,4253c4-9,2-20-5-23c-8-6-8-9,0-14c6-4,11-14,11-23c0-14-3-14-18,2
			c-11,12-16,30-14,47C3193,4273,3205,4278,3214,4253z M2935,4179c11-17-1-21-15-4c-8,9-8,15-2,15S2932,4185,2935,4179z M2780,4096
			c0-28-16-8-24,29c-6,28-5,29,9,11C2773,4125,2780,4107,2780,4096z M3377,4118c-3-8-6-5-6,6c-1,11,2,17,5,13
			C3379,4134,3380,4125,3377,4118z M2769,4007c1-5-3-5-9-2c-5,3-10,16-9,28c0,21,1,21,9,2C2765,4024,2769,4011,2769,4007z
			 M3332,4025c-2-14-8-22-13-19s-5,14,1,25C3334,4057,3338,4055,3332,4025z M3378,4007c2-12-3-17-17-17c-12,0-21,6-21,13
			C3340,4034,3372,4037,3378,4007z M2709,3932c0-24-1-25-9-7c-12,28-12,47,0,40C2706,3962,2710,3947,2709,3932z M3260,3939
			c0-6-4-8-9-5c-5,4-7-11-4-32c4-27,1-42-11-51c-19-16-31-9-22,14c3,9,11,13,17,9c9-5,10,2,6,24c-7,35,0,65,14,56
			C3256,3951,3260,3944,3260,3939z M3380,3935c0-8-4-15-10-15c-5,0-10,7-10,15s5,15,10,15C3376,3950,3380,3943,3380,3935z
			 M3223,3920c3-11,1-20-4-20s-9,9-9,20s2,20,4,20S3220,3931,3223,3920z M2718,3877c18-12,15-27-4-20c-13,5-15,2-10-14
			c5-15,1-22-13-26c-17-4-18-1-11,24c5,18,5,27-1,24c-5-4-9-2-9,3C2670,3888,2692,3893,2718,3877z M2545,3562c-3-3-11,0-18,7
			c-9,10-8,11,6,5C2543,3571,2548,3565,2545,3562z M2977,3128c-3-7-5-2-5,12s2,19,5,13C2979,3146,2979,3134,2977,3128z M3187,2703
			c-1-65-3-12-3,117s2,182,3,118C3189,2873,3189,2767,3187,2703z M3467,2798c-1-40-3-10-3,67s1,110,3,73S3469,2838,3467,2798z
			 M3300,2816c0-3-4-8-10-11c-5-3-10-1-10,4c0,6,5,11,10,11C3296,2820,3300,2818,3300,2816z M1920,2760c57-23,141-82,183-129
			c15-17,33-31,40-31c9,0,9-2-1-8c-9-7-8-13,8-27c11-10,20-24,20-30c0-7,10-20,23-29c12-9,16-14,8-10c-11,6-13,3-7-12
			c5-10,9-26,10-34c0-8,9-18,19-22c9-4,17-13,17-19c0-8-4-8-12-1c-10,8-13,0-13-34c0-25,4-43,10-41s9,14,7,27c-3,15,0,20,8,15
			c6-4,10-16,7-26s-1-22,4-25c14-9,11-37-4-31c-8,3-20,1-28-5c-11-8-10-9,3-4c11,3,22-2,29-15c12-24,5-36-13-21c-9,7-17,6-27-5
			c-11-12-10-14,4-11c10,2,22-5,28-14c14-21,3-35-15-20c-9,7-17,6-27-5c-11-12-10-14,5-11c11,2,20-4,22-14c3-17-8-22-45-21
			c-23,1-14-15,10-19c12-2,21-7,19-13c-2-5-10-9-18-7c-17,4-18-19-1-37c10-11,8-13-11-8c-14,3-20,1-15-6c4-6-2-8-15-5
			c-12,4-22,2-22-3s6-9,14-9c19,0,31-19,19-31c-6-6-20-6-38,1c-15,6-30,8-33,6c-3-3,7-10,22-15c41-16,33-35-14-28c-22,3-40,1-40-4
			s8-9,18-9c25,0,34-11,21-26c-8-10-17-9-47,3c-32,13-35,13-24,0c15-18,12-35-10-59c-23-23-33-23-58,2c-15,15-20,16-20,6
			c0-8,5-18,10-21c6-3,10-13,10-21s-4-14-10-14c-12,0-50,36-50,48c0,4,21,20,48,36c26,17,58,43,71,58s30,28,37,28c8,0,14,5,14,12
			c0,6,8,21,19,32c10,12,31,53,47,91c26,64,29,81,29,185c-1,100-4,122-26,173c-47,108-133,189-241,229c-35,12-54,24-47,28
			c8,5,6,11-7,19C1810,2788,1863,2782,1920,2760z M1490,2671c0-18-38-41-55-35c-14,6-17,4-12-9c8-21,3-21-29-1c-29,20-17,45,19,37
			c14-3,18-2,10,4s2,9,27,10C1472,2678,1490,2675,1490,2671z M3457,2323c-1-49-3-9-3,87s2,136,3,88C3459,2449,3459,2371,3457,2323z
			 M3420,2560c0-5-2-10-4-10c-3,0-8,5-11,10c-3,6-1,10,4,10C3415,2570,3420,2566,3420,2560z M3430,2436c0-3-4-8-10-11
			c-5-3-10-1-10,4c0,6,5,11,10,11C3426,2440,3430,2438,3430,2436z M2136,2340c4-32,2-41-8-38c-14,5-23,51-14,75
			C2123,2400,2131,2387,2136,2340z M3320,2284c0-8-4-12-10-9c-5,3-10,13-10,21s5,12,10,9C3316,2302,3320,2292,3320,2284z M3385,2281
			c3-5,1-12-5-16c-5-3-10,1-10,9C3370,2292,3376,2295,3385,2281z M3190,2230c-6-12-14-19-17-17c-2,3,1,15,7,27s14,19,17,17
			C3199,2254,3196,2242,3190,2230z M3430,2239c7-11,9-27,6-35s-2-22,1-31c6-15,7-15,14,3c4,10,7-84,6-211l-2-230l-2,196
			c-3,187-4,198-26,221c-12,13-22,35-23,48c0,14-4,33-8,43C3384,2268,3416,2265,3430,2239z M3436,2084c-3-32-20-64-29-53
			c-3,2-7,23-11,46c-5,35-3,42,11,46C3434,2129,3439,2123,3436,2084z M967,2034c-3-3-12-4-19-1c-8,3-5,6,6,6
			C965,2040,971,2037,967,2034z M1370,1989c0-6-4-7-10-4c-5,3-10,11-10,16c0,6,5,7,10,4C1366,2002,1370,1994,1370,1989z M3420,1848
			c0-4-4-8-10-8c-5,0-10,4-10,9s-3,18-6,28c-5,16-4,16,10-1C3413,1865,3420,1853,3420,1848z M1898,1858c13-13,16-48,5-48
			c-16,1-43,28-43,44C1860,1873,1881,1875,1898,1858z M1850,1829c14-26,8-34-17-21c-11,6-25,7-33,2c-17-11-30-4-30,17
			c0,10,6,14,20,10c11-3,20-1,20,4C1810,1858,1839,1850,1850,1829z M3340,1810c0-5-2-10-4-10c-3,0-8,5-11,10c-3,6-1,10,4,10
			C3335,1820,3340,1816,3340,1810z M3340,1765c7-8,8-15,2-15c-5,0-15,7-22,15s-8,15-2,15C3323,1780,3333,1773,3340,1765z M3392,1750
			c9-16,13-32,9-34c-4-3-15,10-24,29C3357,1788,3368,1791,3392,1750z M3366,1673c-8-9-46,32-46,50c0,7,12-1,27-15
			C3362,1693,3370,1677,3366,1673z M3338,1612c6-18-15-14-22,4c-4,10-1,14,6,12C3328,1626,3336,1618,3338,1612z"/>
		<path d="M3833,5043c-7-2-13-8-13-13c0-10,38-1,46,11C3872,5051,3853,5052,3833,5043z"/>
		<path d="M3950,4830c0-5,5-10,11-10c5,0,7,5,4,10c-3,6-8,10-11,10C3952,4840,3950,4836,3950,4830z"/>
		<path d="M2795,5000c-13-6-15-9-5-9c8,0,22,4,30,9C2838,5012,2822,5012,2795,5000z"/>
		<path d="M3230,4354c8-10,15-20,16-22s5,1,8,7c4,5-4,15-16,22C3216,4373,3216,4372,3230,4354z"/>
		<path d="M3001,4233c0-21,4-47,9-58c6-15,9-6,9,32c1,28-3,55-9,58C3004,4269,3000,4256,3001,4233z"/>
		<path d="M3031,4244c0-11,3-14,6-6c3,7,2,16-1,19C3033,4261,3030,4255,3031,4244z"/>
		<path d="M2906,4005c4-8,10-12,15-9c14,8,10,24-6,24C2906,4020,2903,4014,2906,4005z"/>
		<path d="M3135,3130c3-5,8-10,11-10c2,0,4,5,4,10c0,6-5,10-11,10C3134,3140,3132,3136,3135,3130z"/>
		<path d="M1878,2743c7-3,16-2,19,1c4,3-2,6-13,5C1873,2749,1870,2746,1878,2743z"/>
		<path d="M1930,2726c0-2,7-7,16-10c8-3,12-2,9,4C1949,2730,1930,2734,1930,2726z"/>
		<path d="M1990,2697c0-2,19-19,43-37c23-19,36-26,28-17C2046,2662,1990,2704,1990,2697z"/>
		<path d="M2096,2598c10-14,21-24,23-22c3,3-6,15-18,27l-24,22L2096,2598z"/>
		<path d="M2150,2090c0-5,5-10,10-10c6,0,10,5,10,10c0,6-4,10-10,10C2155,2100,2150,2096,2150,2090z"/>
		<path d="M4658,5113c6-2,18-2,25,0c6,3,1,5-13,5S4651,5116,4658,5113z"/>
		<path d="M4517,4598c6-11,41-10,47,1c3,4-8,8-23,7C4525,4605,4514,4602,4517,4598z"/>
		<path d="M3659,4334c-9-11-10-20-3-32c15-22,42-38,51-28c4,4,0,12-10,17c-26,15-20,31,11,27c33-4,41-37,18-74c-23-34-77-33-104,1
			l-20,25l-7-36c-7-40,3-59,62-125c53-59,123-75,231-53c13,2,20,9,17,15c-4,5-15,7-24,4c-10-3-30,1-46,9c-15,8-33,12-40,9
			c-16-5-51,12-82,40c-27,24-30,47-7,47c16,0,40,49,51,101C3768,4336,3694,4376,3659,4334z"/>
		<path d="M2935,2810c-3-5-9-61-12-123l-6-112l22,24c12,14,19,32,16,42s-8,27-10,38c-2,12-6,25-9,29c-2,4,0,29,5,56
			C2950,2813,2948,2831,2935,2810z"/>
		<path d="M2971,2774c0-11,3-14,6-6c3,7,2,16-1,19C2973,2791,2970,2785,2971,2774z"/>
		<path d="M2930,2488c0-5-4-7-8-4c-5,3-14-32-21-77c-14-95-41-187-78-269c-28-62-27-77,5-57c16,10,26,10,47,1c45-20,106-15,148,14
			c52,35,63,67,37,108c-11,18-22,57-26,86c-4,30-15,73-25,96c-9,23-15,44-12,47c2,3-3,16-12,30C2969,2488,2930,2506,2930,2488z"/>
		<path d="M3990,2156c0-9,7-16,16-16s14,5,12,12C4012,2170,3990,2173,3990,2156z"/>
		<path d="M4246,2105c-3-9,0-15,9-15c8,0,15,7,15,15s-4,15-9,15S4250,2113,4246,2105z"/>
		<path d="M4106,2054c-11-28-6-39,9-20c8,11,15,23,15,28C4130,2076,4112,2071,4106,2054z"/>
		<path d="M4390,2040c0-5,23-10,50-10c28,0,50,5,50,10c0,6-22,10-50,10C4413,2050,4390,2046,4390,2040z"/>
		<path d="M4150,1984c-12-25-20-47-18-50c3-2,16,18,30,46c14,27,22,50,17,50C4175,2030,4162,2010,4150,1984z"/>
		<path d="M4017,1993c-4-3-7-11-7-17s5-5,12,2c6,6,9,14,7,17C4026,1998,4020,1997,4017,1993z"/>
		<path d="M4090,1979c0-7-7-17-16-23c-12-9-13-17-5-40c6-15,8-33,4-39c-3-6-11-38-17-71c-6-32-17-61-24-64c-7-2-10,2-6,12
			c8,21-5,20-28-1c-19-17-19-16-13,12l6,30l-16-28c-19-33-55-169-55-209v-28h-132c-73,0-138,4-144,8s-15,31-19,60c-10,75-32,70-39-9
			c-3-41-6-44-34-47c-27-3-30-7-36-45c-11-78-9-268,3-280c8-8,11-5,11,13c1,21,2,22,10,8c6-9,11-29,12-45s26-62,59-108
			c31-44,128-188,215-319c87-132,178-263,203-290c73-81,127-181,179-331l48-140l433-3l432-2l-1,222c-1,155-5,227-13,237
			c-9,11-9,15,0,18c16,6,18,280,2,300c-8,9-8,13,0,13c15,0,13,230-2,230c-7,0-21,8-32,16c-19,16-19,16,12,12l31-4l1,68v68l-52-21
			c-28-11-59-26-67-32c-46-34-80-73-85-99c-7-32-28-33-33-2c-8,52,96,145,183,165c52,11,55,14,55,42c0,29-1,29-40,23
			c-22-3-40-3-40,1c0,13,50,32,66,26c10-3,14,2,14,18s-10,30-30,41c-38,22-38,36,0,49c25,9,30,16,30,45v34l-47-19l-48-19l-47,27
			c-27,14-48,29-48,32c0,10,58,19,126,19c62,0,64,1,64,26v27l-116-5c-65-3-120-10-127-17c-6-6-23-11-38-11c-54,0-267-82-284-110
			c-3-5-12-10-18-10c-8,0-8,3,2,9s10,13,3,28c-8,15-7,25,3,40c14,20,11,20-188,26c-111,4-242,7-290,7c-49,0-97,5-108,10
			c-22,12-24,45-7,119c11,51,24,64,34,37c3-8,12-12,20-9c9,3,14-1,14-11c0-9-7-19-15-22c-8-4-15-14-15-24c0-9-10-30-22-45
			c-20-25-20-27-2-23c23,4,77,100,79,142c1,17,10,47,19,66c15,30,16,31,11,8c-3-16-1-28,3-28c5,0,13,37,17,83c12,128,13,167,3,167
			C4094,1990,4090,1985,4090,1979z M4845,1470c4-6-8-10-29-10c-20,0-36,5-36,10c0,6,13,10,29,10C4826,1480,4842,1476,4845,1470z
			 M4920,1328c-31-12-35-36-10-63c12-13,19-29,15-35s-2-17,4-24c8-9,3-17-19-30c-17-9-30-21-30-27c0-5-4-9-10-9s-10,43-10,109v108
			l40-11C4935,1337,4938,1335,4920,1328z M4570,1248c0-30-25-15-28,17c-3,25-2,27,12,16C4563,1273,4570,1259,4570,1248z M4612,1213
			c10-9,18-22,18-29s8-15,19-19c17-5,71-72,71-88c0-4-7-7-15-7s-15,9-15,20s-6,20-14,20c-7,0-16,9-19,21c-3,11-15,23-26,26
			c-12,3-21,14-21,24c0,11-4,19-9,19s-11,7-15,15C4579,1235,4589,1234,4612,1213z M4511,1137c-8-8-11-3-11,19c1,25,2,27,11,11
			C4519,1153,4519,1145,4511,1137z M4545,1044c11-31,32-76,47-101c32-51,33-53,13-53c-16,0-81,127-91,178
			C4503,1121,4525,1104,4545,1044z M4835,1060c3-6,0-10-7-10c-15,0-38,19-38,32C4790,1092,4826,1074,4835,1060z M5090,1080
			c0-5-7-10-15-10s-15,5-15,10c0,6,7,10,15,10S5090,1086,5090,1080z M5020,1035c-7-9-15-13-17-11c-7,7,7,26,19,26
			C5028,1050,5028,1044,5020,1035z M5050,1020c0-5-7-10-15-10s-15,5-15,10c0,6,7,10,15,10S5050,1026,5050,1020z M4983,992
			c-3-12-9-22-14-22c-12,0-11,7,2,32S4991,1021,4983,992z M4710,975c30-32,22-40-18-19c-32,15-38,25-25,37
			C4678,1004,4685,1001,4710,975z M4814,984c16-16,21-34,9-34c-10,0-43,32-43,42C4780,1005,4797,1001,4814,984z M5110,960
			c0-5-4-10-10-10c-5,0-10,5-10,10c0,6,5,10,10,10C5106,970,5110,966,5110,960z M4960,950c0-5-2-10-4-10c-3,0-8,5-11,10
			c-3,6-1,10,4,10C4955,960,4960,956,4960,950z M4975,920c-3-5-10-10-16-10c-5,0-9,5-9,10c0,6,7,10,16,10
			C4974,930,4978,926,4975,920z M5040,909c0-5-7-9-15-9c-9,0-12,6-9,15C5022,930,5040,926,5040,909z M4724,877c6-9,7-19,3-24
			c-8-7-56,44-57,61C4670,926,4711,897,4724,877z M4812,878c19-29,29-68,17-68c-5,0-15,12-23,28c-8,15-23,36-35,46
			c-11,10-18,23-15,27C4763,924,4794,905,4812,878z M5110,890c0-5-9-10-21-10c-11,0-17,5-14,10c3,6,13,10,21,10S5110,896,5110,890z
			 M5050,881c0-10-24-21-46-21c-8,0-14,5-14,11c0,5,4,8,8,5c4-2,14-1,22,5C5039,892,5050,892,5050,881z M4955,870c3-5,1-10-4-10
			c-6,0-11,5-11,10c0,6,2,10,4,10C4947,880,4952,876,4955,870z M4680,850c0-5-4-10-10-10c-5,0-10,5-10,10c0,6,5,10,10,10
			C4676,860,4680,856,4680,850z M5060,850c0-5-2-10-4-10c-3,0-8,5-11,10c-3,6-1,10,4,10C5055,860,5060,856,5060,850z M4744,834
			c25-10,19-22-9-16c-14,2-25,8-25,13C4710,841,4722,842,4744,834z M4968,829c-2-6-8-10-13-10s-11,4-13,10s4,11,13,11
			S4970,835,4968,829z M4688,800c12-16,22-34,22-40c0-19-19-10-39,19C4633,831,4650,852,4688,800z M4889,796c19-23-4-28-24-6
			c-15,17-16,20-3,20C4871,810,4883,804,4889,796z M5030,795c0-8-7-15-15-15c-16,0-20,12-8,23C5018,815,5030,811,5030,795z
			 M5030,755c-15-17-40-20-40-4c0,6,7,9,15,6c8-4,17-2,20,3c4,6,9,10,12,10S5037,763,5030,755z M5060,736c0-3-4-8-10-11
			c-5-3-10-1-10,4c0,6,5,11,10,11C5056,740,5060,738,5060,736z M5025,720c3-5,1-10-4-10c-6,0-11,5-11,10c0,6,2,10,4,10
			C5017,730,5022,726,5025,720z M4822,653c63-63,67-65,59-35c-6,19-6,34,0,37c11,7,121-56,127-73c4-12-3-16-51-26c-15-4-25-11-22-16
			s13-7,23-4c14,5,14,4,3-4c-12-8-9-15,15-37c16-14,44-33,63-41c39-18,29-41-12-30c-27,6-280,257-285,281
			C4736,732,4754,720,4822,653z M5070,700c0-5-5-10-11-10c-5,0-7,5-4,10c3,6,8,10,11,10C5068,710,5070,706,5070,700z M5043,678
			c6-21,2-36-7-27c-10,11-16,49-8,49C5033,700,5040,690,5043,678z M5088,653c-2-20-9-29-25-31c-13-2-23,2-23,8c0,7,7,10,15,7
			c17-7,30,9,15,18c-12,7-4,25,11,25C5087,680,5090,668,5088,653z M5110,610c0-5-4-10-10-10c-5,0-10,5-10,10c0,6,5,10,10,10
			C5106,620,5110,616,5110,610z M5075,600c3-5,1-10-4-10c-6,0-11,5-11,10c0,6,2,10,4,10C5067,610,5072,606,5075,600z M5090,559
			c0-5-4-9-10-9c-5,0-10,7-10,16c0,8,5,12,10,9C5086,572,5090,565,5090,559z M5013,533c-7-2-19-2-25,0c-7,3-2,5,12,5
			S5019,536,5013,533z M5100,530c0-5-4-10-10-10c-5,0-10,5-10,10c0,6,5,10,10,10C5096,540,5100,536,5100,530z M5110,500
			c0-5-4-10-10-10c-5,0-10,5-10,10c0,6,5,10,10,10C5106,510,5110,506,5110,500z"/>
		<path d="M4037,1891c-4-17-3-21,5-13c5,5,8,16,6,23C4045,1909,4041,1904,4037,1891z"/>
		<path d="M2676,1869c-28-33-31-44-16-54c6-4,7,1,3,12c-5,14-3,16,7,6c7-6,18-9,25-7c36,14,61-100,32-141c-15-20-37-13-37,11
			c0,8-7,29-16,46l-16,32l-16-30c-8-16-18-31-22-34c-7-5-40-65-40-73c0-3,20-2,44,0c58,7,67-12,12-26c-24-6-46-17-49-26
			c-4-8-12-12-20-9s-20-3-28-12c-12-15-12-17,1-12c21,7,40-16,33-41c-3-12-1-21,6-21c6,0,11-4,11-10c0-5-7-7-15-4c-8,4-15,1-15-5
			s-8-11-18-11c-22,0-50-46-36-60c21-21,147-42,286-47l146-6l89,86c49,48,99,95,111,105c12,11,22,22,22,26c0,14-103,136-114,134
			c-22-4-84,30-102,56c-11,15-34,46-51,69c-18,23-33,47-33,54c0,22-19,24-40,3l-20-20l-40,20C2709,1906,2706,1906,2676,1869z"/>
		<path d="M4695,1890c-22-4-52-12-67-18c-42-17-106-87-110-119c-2-22-9-29-33-34l-30-7l28-1c15,0,28-7,28-13c1-7,3-22,4-33
			c6-52,92-154,117-139c7,5,4,10-8,15c-47,17-94,94-94,153c0,16,6,18,50,14c27-3,47-1,44,4c-3,4-25,8-50,8c-53,0-55,10-15,70
			c36,54,94,90,144,90c20,0,37,5,37,10c0,6-1,9-2,9C4736,1898,4717,1894,4695,1890z"/>
		<path d="M3565,1860c5-15,2-20-10-20c-11,0-15,5-11,15c3,8,0,15-7,15s-13-18-15-44c-3-42-1-44,22-42c16,2,23-1,19-9c-2-7,0-16,6-20
			c6-3,11-15,11-26c0-24,27-25,35,0c3,10,16,31,30,47c20,23,26,26,39,15c14-11,16-11,16,4c0,10-3,15-7,12c-8-8-33,11-33,25
			c0,6,7,5,15-2c24-20,19,13-5,35c-19,18-20,17-20-3c0-27-16-28-32-2c-7,11-23,20-36,20C3563,1880,3560,1876,3565,1860z"/>
		<path d="M3741,1851c-6-4-10-18-8-32c3-17,11-25,29-27c33-4,45,24,15,32c-17,5-19,8-9,15c11,7,11,9-1,14
			C3760,1856,3748,1855,3741,1851z"/>
		<path d="M375,1822c-8-21,3-32,33-32c33,1,73,27,51,34C421,1836,380,1836,375,1822z"/>
		<path d="M4297,1756c7-56,32-90,71-94c18-2,32,1,32,7s7,11,15,11c20,0,20,63,1,79c-11,9-15,7-19-8c-3-12,1-22,9-25c18-7,18-26,0-26
			s-29,45-16,70c14,26,14,26-26,22c-34-4-34-5-18-23c10-11,14-22,10-27c-4-4-20,7-36,24l-28,32L4297,1756z"/>
		<path d="M2693,1761c8-23,13-28,15-16c2,10-3,25-12,33C2682,1793,2681,1791,2693,1761z"/>
		<path d="M4687,1744c-3-4-2-15,4-25c10-20-4-28-16-9c-4,6-11,7-17,4c-7-4-5-10,6-16c9-5,16-16,16-24c0-9,7-14,17-12
			c13,2,18,13,18,42C4715,1741,4702,1759,4687,1744z"/>
		<path d="M4436,1665c-4-10,1-15,14-15c11,0,20,7,20,15s-6,15-14,15S4440,1673,4436,1665z"/>
		<path d="M1085,1550c-3-5-20-10-38-10c-48,1-107-11-107-21c0-5,6-10,13-10c22-2-67-18-105-18c-28-1-38-6-43-22c-4-11-9-18-12-16
			c-7,8-65-14-85-31c-16-14-18-13-18,1c0,10-7,17-16,17c-8,0-13-4-10-9s-5-16-19-25s-25-26-25-37c0-16-5-20-19-16c-14,3-32-7-58-33
			c-32-31-44-36-71-32c-18,2-32,8-32,13s-4,9-10,9c-5,0-10-7-10-15s-3-15-7-15c-5,0-39-30-77-65c-39-36-75-65-81-65
			c-7,0-31-18-55-40s-47-40-52-40c-4,0-13-9-20-20s-16-20-20-20s-22-15-40-33c-19-18-41-36-51-40C1,951,0,916,0,475V0h1338
			c1149,1,1334,3,1318,15c-15,11-19,31-22,122c-4,106-16,153-38,153c-7,0-19,9-29,20c-9,11-25,20-35,20c-21,0-42,18-42,37
			c0,7-13,27-30,45c-16,17-30,34-30,39c0,4-12,9-27,11c-14,2-35,15-47,31c-18,24-21,41-18,103c2,81,0,86-57,117c-42,22-58,22-71-3
			c-10-20,5-60,22-60c15,0,8-38-7-44c-8-3-15-15-15-26c0-28-30-26-31,3c0,19-1,20-8,4c-6-17-8-17-20-3c-7,9-17,13-22,10s-6,1-4,9
			c3,7-3,24-15,37c-11,13-20,28-21,34c-3,34,5,72,17,81c8,5,15,30,17,55c1,25,5,47,8,50s9,16,12,30c7,30-54,147-75,142
			c-94-25-173-10-233,42c-32,28-32,29-14,47c20,20,26,69,9,69c-14,0-13,43,2,58c9,9,6,12-15,12c-36,0-74,19-80,40
			c-6,24-86,60-132,60c-21,0-35,3-32,7c4,3-25,15-63,24c-39,10-76,22-83,26s-32,15-57,23c-36,12-49,23-62,52c-19,39-50,55-86,44
			c-12-4-26,0-35,9C1170,1562,1095,1566,1085,1550z M860,1470c0-5-4-10-10-10c-5,0-10,5-10,10c0,6,5,10,10,10
			C856,1480,860,1476,860,1470z M1617,1124c-3-3-12-4-19-1c-8,3-5,6,6,6C1615,1130,1621,1127,1617,1124z M1750,944c9-9,5-14-18-19
			c-36-8-79,2-79,18S1735,959,1750,944z M2067,718c-3-8-6-5-6,6c-1,11,2,17,5,13C2069,734,2070,725,2067,718z M2316,573
			c-10-10-19,5-10,18c6,11,8,11,12,0C2320,584,2319,576,2316,573z M2610,100c0-5-5-10-11-10c-5,0-7,5-4,10c3,6,8,10,11,10
			C2608,110,2610,106,2610,100z"/>
		<path d="M4808,1543c7-3,16-2,19,1c4,3-2,6-13,5C4803,1549,4800,1546,4808,1543z"/>
		<path d="M4573,1475c-8-23-1-24,32-4l30,19h-28C4591,1490,4577,1483,4573,1475z"/>
		<path d="M3501,1130c0-9-10-34-22-55c-28-54-43-93-31-80c22,23,63,115,59,132C3504,1140,3502,1141,3501,1130z"/>
		<path d="M3040,1059c0-5,5-7,10-4c6,3,10,8,10,11c0,2-4,4-10,4C3045,1070,3040,1065,3040,1059z"/>
		<path d="M3505,907c-10-22-31-53-46-67s-29-31-31-39c-9-37,96-7,107,31c13,46,27,66,43,61c22-9,7,12-27,36l-28,20L3505,907z"/>
		<path d="M3745,740c38-38,72-70,74-70c3,0-26,32-64,70c-38,39-72,70-74,70C3678,810,3707,779,3745,740z"/>
		<path d="M3590,435c-57-11-78-11-90-2c-9,7-7,2,3-10c17-20,27-21,108-19c87,2,89,2,89-21c0-32,33-30,48,2c12,25,18,27,102,29
			c19,1,41,5,49,10c10,6,12,6,7-2c-4-7-1-12,8-12s16,5,16,11s9,8,23,4c21-6,21-6,3,9C3931,454,3700,455,3590,435z"/>
		<path d="M3736,293c-11-12-6-91,7-97c6-3,1-3-13,0c-14,4-28,12-32,18c-5,7-16,2-32-14l-26-23l-1,29c0,16-4,38-9,49c-6,14-8,7-5-25
			c2-25,4-55,4-67c1-15,12-28,33-39c18-9,69-41,114-70c55-37,91-54,113-54c31,0,32,1,25,38c-3,20-16,48-28,62c-36,43-49,71-37,83
			c11,11-6,24-61,49c-19,8-28,20-28,35C3760,290,3747,304,3736,293z M3825,72c-10-9-15-11-11-4c4,6,2,12-3,12c-6,0-11-5-11-11
			c0-5-5-7-11-3c-8,5-6,10,5,16c9,5,21,6,26,3c6-3,10-1,10,6s3,9,7,5C3841,93,3836,82,3825,72z"/>
		<path d="M3620,90c0-11,6-20,14-20s16-5,18-11s12-10,23-8c17,4,16,7-10,32C3630,115,3620,117,3620,90z"/>
		<path d="M3620,30c0-29,2-30,42-30h42l-24,17c-14,9-31,23-38,30C3623,66,3620,64,3620,30z"/>
	</g>
</g>
<g id="Слой_2">
	<linearGradient id="SVGID_1_" gradientUnits="userSpaceOnUse" x1="0.1" y1="258" x2="512.1" y2="258">
		<stop  offset="0" style="stop-color:#95C11F"/>
		<stop  offset="1" style="stop-color:#FFF200"/>
	</linearGradient>
	<rect x="0.1" y="2" class="st0" width="512" height="512"/>
	<rect x="-405" y="5" class="st1" width="131" height="109"/>
	<rect x="-391" y="154.2" class="st2" width="139" height="105.9"/>
</g>
</svg>
